<?xml version="1.0" encoding="UTF-8"?>
<svg xmlns="http://www.w3.org/2000/svg" version="1.1" viewBox="0 0 42 42">
  <defs>
    <style>
      .cls-1 {
        fill: #120e09;
      }

      .cls-2 {
        fill: #0d0b06;
      }

      .cls-3 {
        fill: #fddc60;
      }
    </style>
  </defs>
  <!-- Generator: Adobe Illustrator 28.6.0, SVG Export Plug-In . SVG Version: 1.2.0 Build 709)  -->
  <g>
    <g id="Layer_1">
      <g>
        <path class="cls-2" d="M20,22.9c0,0,0-.1,0-.2,0,0,0,0,0,0,.2-1.3.1-2.6-.4-3.8-.2-.5-.2-1.3,0-1.8.6-1.9.4-3.7,0-5.6-.2-1.3.5-2.6.2-3.8-.3-1.3.3-2.6,0-4-.2-.9.3-1.8.4-2.8,0-.2.2-.5.4-.5.3,0,.4.3.4.5.1.8.2,1.6.4,2.4.3,1,0,2,.3,3,.2.9-.2,2,0,3,.6,2.1-.1,4.2.3,6.2,0,.3.1.6.2.9,0-.3.1-.6.2-.9.2-1,.4-1.9.7-2.9.2-.8.9-.8,1.6-.7.7.1.9.6.8,1.3,0,.3,0,.7-.1,1,0,.4,0,.8,0,1.2.1-.3.3-.7.3-1,.1-.8.6-1,1.3-.8.7.2,1.3.6,1.1,1.5,0,.2-.3.5.3.4,1-.3,1.8.5,1.7,1.5,0,1,0,2,.2,3,.3,1.4.1,2.6-.8,3.7-.9,1.1-1.3,2.5-1.9,3.8-.4.9-.4,1.9-1.1,2.7-.1.2-1,1,0,1.6.5.4.6,1.2.3,1.7-1.1,1.8-.9,3.9-1.1,5.8,0,.7,0,1.4-.1,2.1-.1,0-.3,0-.4,0,0-.3,0-.6,0-.9,0-.3,0-.7,0-1,0,0,0,0,0-.1,0,0,0,0,0,0,0,0,0,0,0-.1,0,0,0-.2,0-.2,0,0,0-.1,0-.2,0-.1,0-.3,0-.4,0,0,0-.2,0-.2,0,0,0,0,0,0,0,0,0,0,0,0,0,0,0-.2,0-.3,0,0,0,0,0,0,0,0,0,0,0-.1,0,0,0,0,0,0,0,0,0,0,0-.1.1-1.1.2-2.2.6-3.3.5-.6.8-1.2.3-1.9-.4-.5-.8-.2-1.2,0,0,0,0,0,0,0,0,0,0,0,0,0-.4,0-.8.2-1.3.3-.5,0-.9.1-1.2.7,0,0,0,0,0,0,0,0,0,.1,0,.2,0,0,0,0,0,0,0,.2,0,.4,0,.6,0,0,0,0,0,0,0,0,0,0,0,0,.3.4.7.7.8,1.3.3,2.1.1,4.2,0,6.3-.1,0-.2,0-.3,0,0-.6,0-1.2,0-1.8,0-1.6.2-3.2-.3-4.8-.1-.3-.4-.6-.6-.9-.2.3-.4.5-.5.8-.6,2.2-.4,4.5-.4,6.7-.1,0-.3,0-.4,0,0-1.2,0-2.5,0-3.7,0-1.2,0-2.5.7-3.6.4-.5.6-1.1.4-1.7,0,0-.2,0-.3,0-.3,0-.6-.2-.9-.3,0,0,0,0,0,0-.8,0-1.4-.4-2-.8-.3-.2-.7,0-.8.4,0,0,0,0,0,.1,0,0,0,.1,0,.2.3.5.7,1.1.8,1.7.5,2.5.3,5.1.3,7.7-.1,0-.3,0-.4,0,0-2.4.1-4.8-.2-7.2,0-.6-.4-1-.7-1.4-.5-.8-.2-1.6.7-1.8.2,0,0-.2,0-.3-.4-1.2-1-2.4-1.7-3.3-1.6-2-1.2-4.9-3.1-6.8-.6-.5-.3-1.9-.4-2.9-.1-.7-.4-1.3-.8-1.9-.4-.6-.8-1.3-.6-2.1.1-.6-.2-1-.5-1.5-.1-.3-.4-.5-.1-.9.3-.3.7-.2,1,0,.9.6,1.5,1.6,1.9,2.6.5,1.2.5,2.7,1.5,3.7.4.4.8.7.4,1.3,0,0,0,0,0,.1,1.3.8.1,2.2.7,3.2.6,1.1,1.2,2.1,2.3,2.6,0,0,.4-.7.6-1,0,0,0,0,0-.1,0-.3.1-.5.2-.8,0,0,0-.1,0-.2ZM20.1,23.7s0,0,0,0c0,0,0,0,0,0-.2.4-.4.9-.5,1.3,0,0,0,0,0,0,0,0,0,0,0,0,.2.5.6.7,1.1.7,0,.2.2,0,.2,0,0,0,.1,0,.2,0,0,.1,0,.2.1.3,0,0-.1,0-.2,0,0,0,0,0-.1,0h-.1s0,0-.1,0c0,0,0,0,0,0,0,0,0,0,0,0-.3,0-.6-.2-.8-.4.2-.4-.3-.3-.4-.5,0,0,0,0,0,0,0,.2.1.4.4.5,0,.1,0,.2,0,.3,0,0,0,.1,0,.2,0,0,0,.1.1.2,0,0,0,0,0,.1h0s0,0,0,0c.2.3.2.6,0,1,0,0,0,0,0,0,0,0,0,0,0,0,.2.1.5.3.7.4.5.5.8.3,1-.3h0c0-.1,0-.2,0-.2,0,0,0,0,0,0,0,0,0,0,0,0,0,0,0,0,0,0,0-.5.3-1.1-.3-1.5,0-.1,0-.3,0-.4,0,0,.2-.2.2-.3.3,0,.1-.3.2-.4,0,0-.1,0-.2-.1,0-.2-.1-.4-.2-.6,0,0,0,0,0-.1,0-.3,0-.6,0-.9,0,0,0,0,0,0,0-.2,0-.4,0-.6,0,0,0-.1,0-.2,0,0,0-.2,0-.2,0,0,0,0,0,0,0,0,0,0,0,0,0-.2,0-.3,0-.5,0,0,0-.1,0-.2,0-.2,0-.4,0-.6,0,0,0-.1,0-.2,0,0,0,0,0-.1,0,0,0,0,0,0,0,0,0,0,0,0,.2-.6.5-1.2.7-1.8.1-.5.4-1.2-.7-.9-.3.1-.7,0-1,0-.6,0-.8.3-.6.8.5,1,.5,2,.5,3,0,.6-.2,1.2-.3,1.8h0ZM27.4,27.4c0-.2,0-.3.1-.5.4-1.5,1.1-2.9,2.3-4.1.2-.2.4-.5.2-.8-.4-.6-1-.5-1.6-.5-.3,0-.5.4-.4.7.3,1.6-.4,2.9-1.4,4-.1.1-.3.2-.4.4-.2.2-.5.6-.5.7.2.5.7.5,1.2.6.2,0,.4,0,.4-.3,0,0,0-.1,0-.2ZM21.2,30.1c0,0,0-.2.1-.3.3-.9-.7-.8-1-1.1,0,0,0,0,0,0-.2,0-.5-.3-.5-.2-.5.7-1.8,1-.8,2.3.5.6.9,1.1,1.6,1.1.1,0,.3-.8.4-1.2,0,0,0-.2,0-.2,0,0,0-.2.1-.3ZM25.8,29.7c.3.2.6.2.8,0,.3-.4.4-.9.2-1.3,0-.2-.6-.2-1-.3,0,0,0,.1,0,.2,0,0,0,.2,0,.3,0,0,0,0,0,0v.6c-.2,0-.2,0-.2.1,0,0,0,0,0,0,0,0-.2.2,0,.3,0,0,.1,0,.2.1ZM26.1,17.5c.1-.8.1-1.6,0-2.5,0,0,0,0,0,0,0,0,0,0,0,0-.2.7-.5,1.5-.1,2.3,0,.4,0,.7-.2,1,0,0,0,.2,0,.3,0,0,.1-.1.1-.2,0-.3.2-.6.3-.9ZM24.3,32s0,0,.1,0c0,0,0,0,0,0,.4-.2.9-.5,1.2-.7.3-.2.5-.9.3-1-.5-.3-1-.5-1.6-.3-1.2-.3-.2.6-.4.8,0,0,0,.2,0,.3,0,0,0,0,0,.1v.3s0,0,0,.1c0,.2-.1.5.3.3,0,0,0,0,0,0ZM23.1,29.1s0,0,0,0c0-.1.2-.2.2-.4,0,0,0,0,0-.1,0-.2.1-.4.2-.5.2-.4.4-.8.1-1.2,0,0-.3,0-.5,0,0,0,0,0,0,0-.1,0-.2,0-.4,0,0,0,0,0,0,0,0,0,0,0,0,0,0,0,0,0,0,0,0,0,0,0,0,0,0,0,0,0-.1,0h0s0,0,0,0c0,0-.2-.1-.1,0,0,.6,0,1.1-.3,1.6-.4.5,0,.6.3.7h.2c0,0,0,0,0,0,.2,0,.3,0,.5,0,0,0,0,0,0,0,0,0,.2,0,.3-.1ZM21.6,12.7c0-.1,0-.3,0-.4.4-1.3,0-1.6-1.3-1.2-.2,0-.4.3-.4.3.4,1,.4,2,.4,3,0,.7-.2,1.4-.2,2,0,.3-.5.6-.3.9.5.6,1.3.4,1.9.2.5-.2.3-.6.2-.9-.5-1.3-.5-2.6-.5-3.9,0,0,0,0,0,0ZM12.7,12.6c0,0,0-.1-.1-.2,0-.4-.3-.5-.6-.6-.1,0-.3,0-.4,0,0,.2.1.4.2.5.3.5.5,1,.6,1.5,0,0,0,0,0,0,0,.1,0,.2,0,.4h0c0,.2,0,.2,0,.3,0,0,.2,0,.3,0,.5,0,1,0,1.2-.5.1-.2-.3-.3-.5-.5-.2-.3-.4-.6-.5-.9,0,0,0,0,0-.1ZM23.4,30.4s0,0,0-.1c0,0,0,0,0,0,0-.1,0-.3,0-.4h0c0,0,0-.2,0-.3,0,0,0,0,0-.1,0,0,0,.1,0,.2-.2,0-.4,0-.6,0,0,0-.2,0-.3,0-.2,0-.4,0-.6,0,0,0,0,0,0,.1-.1.4-.3.7-.4,1.1-.3.7-.5,1.3.6,1.5,1.3.2,1.9-.4,1.6-1.9,0,0,0,0,0,0ZM26.2,25.9c0,0,0,.2,0,.2.9-1.2,1.6-2.5,1.4-4.1,0,0,0-.1,0-.2,0,0,0,0-.1.1-.6,1.2-1.1,2.5-1.3,3.9ZM19.5,27.2s0,0,0,0c-.2-.3-.3-.5-.3-.9,0,0,0-.1,0-.2,0,0,0,0,0,0,0,0,0,.1,0,.2-.3.5-.8.8-1.3,1.1-.1,0-.4.2-.4.2.2.4,0,1,.5,1.3.3.2.7,0,1-.2.4-.4.7-.8.6-1.5ZM24.3,29.6s0,0,0,0c0,0,.2,0,.2,0h0c.8-.2.8-.9.9-1.6,0,0,0,0,0,0,0-.2,0-.3,0-.5-.5.1-1.3-.4-1.3.7,0,.2-.1.4-.2.6-.4.6,0,.8.5.9ZM24.1,25.2c0,0,.1.2.2.2,0-.1.2-.2.3-.3.7-1.4,1-2.9.7-4.4,0,0,0,0,0,0,0,0,0,0-.1,0-.8,1.4-1,2.9-1.1,4.5,0,0,0,0,0,0,0,0,0,0,0,0ZM15.5,18.2c0,0-.1-.2-.2-.3-.4-.5-.7-1.1-1.1-1.6-.4-.5.3-2.1-1.4-1.3-.6.3-.4.4-.2.7.6.8,1.1,1.8,1,2.8,0,1.3.7.9,1.3.8.5-.1,1.2-.3.5-1ZM22.6,23.6c0-.4.2-.9.3-1.3,0,0,0,0,0-.1,0,0,0,0,0,0,0,0,0,0,0,0,0,0,0,0,0,0,0,0,0-.1,0-.2,0,0,0-.1,0-.2,0,0,0,0,0-.1,0,0,0,0,0,0,0-.2,0-.4,0-.6,0,0,0-.2,0-.2-.5-1.3-.3-2.6,0-3.7.3-1.1.5-2.1.3-3.1,0,0,0-.1,0-.2,0,0,0,.2,0,.2-1,2,0,4.4-1.2,6.4,0,.1,0,.3-.1.4,0,0,0,0,0,.1v.2c0,0,0,.1,0,.2v.3s0,0,0,0c0,0,0,0,0,0,0,.1,0,.2,0,.3,0,0,0,.2,0,.2,0,0,0,.1,0,.2,0,0,0,0,0,0,0,0,0,0,0,0,0,.1,0,.2,0,.3,0,.1,0,.3,0,.4,0,.1,0,.2,0,.3,0,0,0,0,0,0,0,0,0,0,0,0,0,.2,0,.5,0,.7,0,0,0,0,0,0,0,0,0,0,0,0,0,0,0,.1,0,.2,0,0,0,.1,0,.2v.2c.1,0,.2.1.2.2,0,0,0,0,0,.1v.2c.1,0,.2,0,.2,0,0,0,0,0-.1,0,.2-.5.3-.9.5-1.4,0,0,0,0,0,0ZM24,15.7s0,0,0,0c0,0-.1,0-.2.1,0,0,.1,0,.2,0,.2.6-.2,1-.4,1.4,0,0,0,0,0,.1,0,0,0-.1,0-.2.1-.4.3-.8.4-1.1,0,0,0,0,0-.1,0,0,0,0,0,0,0,.6-.7,1-.5,1.6.1.5.7.3,1.1.4,0,0,.2,0,.3,0,.6.2,1-.1.8-.7-.3-1.3-.6-2.6-.3-4,0,0,0,0,0,0,0-.1,0-.2,0-.3,0,0,0,0,0-.1,0,0,0,0,0,0,0,0,0,0,0,0,0,0,0-.1,0-.2v-.2c-.1,0-.2,0-.3-.1-.4-.1-.9-.2-1.2,0-.1.1-.2.4-.2.6,0,.4.2.7.3,1.1,0,.2,0,.4,0,.6,0,.3-.1.7,0,1ZM24.2,26.8s0,0,0,0c.3.3.7.4,1.1.2.3-.2.5-.4.6-.8,0-1.7.6-3.3,1.6-4.6.6-.8.4-1.2-.6-1.4-1-.2-1.3,0-1.2,1,.2,1.3-.3,2.6-.7,3.8,0,0,0,0,0,0-.3.5-.9.8-.9,1.5,0,0,0,0,0,0,0,0,0,0,0,0,0,0,0,0,0,0ZM21.8,26s0,0,0,.1c0,0,.2.1.2.2,0,0,0,0,0,.1,0,0-.1.2,0,.2,0,0,0-.2,0-.3.1,0,.3,0,.4.1.9.2,1.6-.2,1.4-.9-.1-.4-.1-.8-.1-1.2,0,0,0,0,0,0,0,0,0,0,0,0,.1-1.4.4-2.8,1.2-4,.3-.5.7-1.1.3-1.6-.3-.3-1-.2-1.5-.3-.7-.2-.7.4-.7.8,0,.4.2.8.3,1.1,0,0,0,0,0,0,0,.3,0,.6,0,1v.2c0,.2-.1.5-.2.7,0,0,0,.1,0,.2,0,.2-.1.5-.2.7h0c-.1,1.1-.7,1.9-1.1,2.8ZM18.9,25.7s0,0,0,0c0,0,0,0,0,0-.1-.1-.2-.3-.4-.4-1.6-1.1-2.3-2.6-2.6-4.5,0-.1,0-.2.1-.3,0,.1,0,.2,0,.3,0,.3,0,.5,0,.8,0-.2,0-.5,0-.7,0-.3.3-.8,0-1-.3-.2-.5.3-.7.5,0,0-.2,0-.3,0,0,0,0-.1-.1-.2,0,0,.2,0,.2,0,.2-.1.4-.2.6-.4,0,0,0-.2-.1-.2-.4,0-.9.2-1.3.3,0,0,0,.1-.1.2,0,.2,0,.4.3.2,0,0,.1.2.1.3,0,.1-.2.3-.4.2-.3-.2-.2-.4-.1-.7,0,0,0-.1,0-.2,0,0-.2,0-.2,0,0,.4,0,.7.1,1,1.1,1.5,1.8,3.1,2.1,5,0,.6,0,1.2.9,1.2.8,0,1.5-.5,1.7-1.4ZM28,19.5c-.1-.6-.2-1.2-.3-1.8-.1.6,0,1.1,0,1.7,0,0,0,0,0,0,0,.2,0,.3-.1.5,0-.1,0-.2,0-.3-.3-1.6-.1-3.1.2-4.7,0-.4-.1-.7-.4-.9-.3-.2-.7-.3-1,0-.3.2-.1.5,0,.8.3,1.1.5,2.3,0,3.3-.6,1.3-.4,1.7,1,1.8.6,0,.5-.1.6-.4ZM29.8,17.6c0-.3,0-.6,0-.8,0-.4,0-.7-.4-.8-.3-.2-.7-.3-1-.1-.3.2-.1.6,0,.9,0,0,0,.1,0,.2,0,0,0-.2,0-.2,0-.1,0-.3,0-.4,0,.1.1.2.2.4.4,1.2.6,2.5,0,3.8,0,.2,0,.6,0,.7.4.2.9.3,1.4.4.2,0,.2-.4.2-.6-.3-1.1-.4-2.2-.4-3.3ZM20.3,8.3c0,.5,0,.9,0,1.2-.2,1.3,0,1.5,1.3,1.1.2,0,.3-.2.2-.4-.5-1-.4-2.1-.3-3.2,0,0,0-.3,0-.3-.4,0-.8,0-1.2,0,0,0,0,.2,0,.2,0,.5.2,1,.2,1.3ZM20.7,6.3c.2-.1.8.2.7-.3-.2-.7-.2-1.4-.1-2.2,0-.1,0-.2,0-.4-.3,0-.7,0-1,0,0,0-.1.2,0,.3.2.6.3,1.2,0,1.8-.4.7,0,.6.5.6ZM20.8,3.2s.2,0,.4-.2c0,0,0,0,0,0-.4-.5-.2-1-.3-1.6,0-.2-.1-.3-.2-.5,0,.1-.1.3-.1.4,0,.5,0,1.1-.2,1.5-.2.4-.1.4.4.4ZM28.6,18.9c0-.5,0-.7,0-.9,0-.1,0-.3,0-.4,0,0,0,.1,0,.2-.3.8,0,1.7-.5,2.5,0,0,0,.2.1.3,0,0,0,0,0,0,.3-.6.4-1.2.4-1.6Z"/>
        <path d="M21.7,42h-.9s0-.3,0-.3c0-.4,0-.7,0-1.1,0-.8,0-1.7,0-2.6,0-.2,0-.3,0-.5,0-1.1,0-2.2.7-3.2.3-.5.5-.9.4-1.4h-.1s-1.1-.4-1.1-.4c-.8,0-1.4-.4-2-.8-.1,0-.2,0-.3,0,0,0-.1.1-.2.3v.2c0,.1.1.3.2.4.2.4.5.8.6,1.2.4,1.9.4,3.8.3,5.6,0,.7,0,1.4,0,2.1v.3s-.9-.1-.9-.1v-.2c0-.7,0-1.4,0-2,0-1.7,0-3.5-.2-5.2,0-.4-.3-.8-.6-1.1v-.2c-.4-.4-.5-.9-.3-1.3.2-.4.5-.6.9-.8-.3-1.1-1-2.3-1.7-3.2-.8-1-1.1-2.2-1.4-3.3-.4-1.3-.7-2.5-1.7-3.5-.4-.4-.5-1.2-.5-2,0-.3,0-.7,0-1,0-.5-.3-1.1-.7-1.8-.4-.7-.8-1.4-.6-2.3,0-.4-.1-.7-.3-1.1,0,0-.1-.2-.2-.3,0,0,0,0,0-.1-.1-.2-.4-.6,0-1,.4-.4.9-.3,1.3,0,.8.6,1.4,1.4,1.9,2.7.2.4.3.9.4,1.3.2.9.4,1.7,1,2.3h.1c.3.4.8.8.4,1.5.8.6.6,1.4.5,2,0,.4-.1.9,0,1.2.5.9,1.1,1.9,2,2.4,0-.1.2-.3.3-.4,0-.2.2-.3.3-.4l.3-1.2c.2-1.4,0-2.6-.4-3.7-.2-.6-.2-1.4,0-1.9.6-1.8.4-3.5,0-5.5-.1-.6,0-1.3.1-1.9.1-.7.2-1.3,0-1.9-.2-.7,0-1.4,0-2.1,0-.6.2-1.2,0-1.9-.1-.7,0-1.4.2-2.1,0-.3.2-.6.2-.8.1-.6.5-.7.7-.7h0s0,0,0,0c.2,0,.6.1.7.7,0,.3,0,.6.1.9,0,.5.1,1,.2,1.4.1.5.1,1,.1,1.5,0,.5,0,1,.1,1.4.1.5,0,1,0,1.5,0,.5-.1,1,0,1.5.3,1.1.2,2.3.2,3.4,0,.9,0,1.8,0,2.7,0-.2,0-.4.1-.6.2-.7.3-1.4.5-2.1.3-1.1,1.4-.9,1.9-.8.8.1,1.2.7,1.1,1.6v.2c0,.1,0,.3,0,.4,0-.2.2-.3.4-.4.3-.2.6-.2,1.1-.1,1.3.3,1.4,1.1,1.3,1.8,0,0,0,0,0,0,.5-.1,1,0,1.4.3.4.3.6.9.6,1.5,0,.9,0,1.9.2,2.9.4,1.5,0,2.8-.9,3.9-.7.9-1.1,1.9-1.6,3,0,.2-.2.5-.3.7-.1.3-.2.6-.3.9-.2.6-.4,1.3-.8,1.9h0c-.1.2-.4.5-.4.8,0,.2.1.3.3.4,0,0,0,0,0,0h.3c0,0-.2,0-.2,0,.5.5.7,1.3.2,2-.8,1.3-.9,2.7-1,4.2,0,.5,0,1-.1,1.5,0,.5,0,1,0,1.4,0,.2,0,.4,0,.7v.2s-.9.2-.9.2l.2-3.7h0s0-1.1,0-1.1c.1-1,.2-2,.6-3h0c.6-.7.7-1.2.3-1.7,0-.1-.1-.2-.2-.2l-.7.3v-.2c-.1,0,0,.2,0,.2-.1,0-.2,0-.4,0-.3,0-.6.1-.9.2-.5,0-.8.1-.9.5h0s0,.2,0,.2h-.2c0,0,.2,0,.2,0v.5c.1.1.2.2.3.3.2.3.5.6.5,1,.3,1.7.2,3.4.1,5.1,0,.4,0,.8,0,1.3v.2s-.8,0-.8,0v-.8c0-.4,0-.8,0-1.2,0-.4,0-.9,0-1.3,0-1.2,0-2.3-.3-3.4,0-.2-.2-.4-.3-.6h0c-.1.1-.2.3-.2.4-.5,1.7-.4,3.5-.4,5.2,0,.5,0,1,0,1.5v.3ZM22.4,33.8h0c0,0,0-.1,0-.1,0,0,0,0,0,.1ZM22.4,32.6h0c0,.1,0,.2,0,.3,0-.1.1-.2.2-.3,0,0-.2,0-.3,0ZM23.7,31.8c0,.2-.2.4-.3.5,0,0,0,0,0,0,.1,0,.2,0,.4,0,0,0,0,0,0,0-.1-.1-.1-.3,0-.4ZM21.9,29.9v.3c-.2.3-.3.5-.4.8-.2.4-.3.7-.2.9,0,.2.3.2.6.3.4,0,.9,0,1.1-.2.2-.3.3-.7.1-1.4v-.3c0,0,0,0,0,0v-.4s-.5,0-.5,0h-.7ZM20.5,32.1c.1,0,.3,0,.4,0h0s0,0,0,0c0,0,0-.1,0-.2,0,.2-.2.2-.3.2,0,0,0,0,0,0ZM17.9,32s0,0,0,0h.2s-.2,0-.2,0ZM24.2,30.9v.3s0,.3,0,.3v.2s0,0,0,0h.1c.1,0,.2-.2.4-.2.3-.2.6-.3.8-.5.2-.1.3-.5.3-.6-.5-.3-.9-.4-1.4-.2h0s0,0,0,0c-.1,0-.2,0-.3,0,0,0,0,0,0,0,0,.2.2.4.1.6ZM25.9,31.4s0,0,0,0c0,0-.2.1-.3.2.2,0,.3,0,.5,0,0,0,0-.1,0-.2ZM18.8,31.3c0,0,.1,0,.2,0,.1,0,.2.1.4.2-.2-.1-.3-.3-.4-.5,0,0,0,0,0,0,0,0,0,0,0,.1ZM20.5,31.6h0,0ZM19.7,28.7c-.1.1-.3.3-.4.4-.3.2-.5.4-.6.7,0,.2,0,.5.3.8.4.6.8,1,1.3,1,0-.1.1-.4.2-.6,0-.2,0-.4.1-.5v-.2c0,0,.4-.6.4-.6.1-.4,0-.4-.4-.6-.2,0-.4-.1-.5-.3h0c0,0-.1,0-.2-.1,0,0,0,0-.1,0ZM26.2,30.1s0,0,0,.1c0,0,.1-.1.1-.2h0c0,0-.2,0-.2,0ZM23.6,29.8h0c0,0,.1,0,.2,0,0,0-.2,0-.2-.1v.2s-.1,0-.1,0h.1ZM24.3,29.7s0,0,0,0h0c0-.1,0,0,0,0ZM25,29.7c.1,0,.2,0,.3,0,0,0-.1-.1-.1-.2,0,0-.1.1-.2.1ZM25.9,29.5c.2.1.3.1.4,0,.2-.3.3-.7.2-1.1,0,0-.3,0-.4,0,0,0,0,0,0,0v.2s0,0,0,0l-.2.7v.2c0,0,0,0,0,0h0c0,0,.1.2.1.2ZM18.2,29.1c0,.1.1.2.2.3,0-.1.1-.2.2-.3-.1,0-.2,0-.3,0ZM21.5,29.1c0,0,0,.1,0,.2h.2s.1,0,.1,0c-.1,0-.3-.1-.4-.2ZM24.3,29.4h0s.2,0,.2,0c.6-.2.6-.6.6-1.3h0c0,0,0-.3,0-.3-.1,0-.2,0-.3,0-.2,0-.4,0-.5,0,0,0,0,.1,0,.4,0,.3-.1.5-.3.7-.1.2-.1.3-.1.3,0,0,0,.1.4.2ZM21.2,28.8c0,0,.2.1.2.2,0,0,0,0,0,0,0,0,0-.1,0-.2,0,0-.1,0-.2,0,0,0,0,0,0,0ZM21.9,28.8s.1,0,.2,0h.3c0,0,.2,0,.2,0h.2s.2,0,.2,0l.2-.4v-.2c.1-.1.1-.2.2-.4v-.2c.2-.3.3-.5.2-.7,0,0,0,0,0,0,0,0-.1,0-.2,0h0s-.2,0-.2,0h-.3s0,0,0,0h-.2s-.1,0-.1,0c0,.5,0,1.1-.4,1.5-.1.1-.1.2-.1.2,0,0,0,0,0,0ZM17.7,27.6c0,0,0,.2,0,.3,0,.4,0,.6.3.7.2.1.5,0,.7-.1.4-.4.6-.7.5-1.2h0c0-.2-.1-.3-.2-.5-.3.3-.7.5-1.1.7,0,0-.1,0-.2,0ZM27,28.2s0,0,0,0c0,.1,0,.3,0,.4,0-.1,0-.2,0-.3,0,0,0-.1,0-.2,0,0-.1,0-.2,0ZM20.2,27.8l.6.4c.2.2.3.2.3.2,0,0,.1,0,.3-.4v-.2s0,0,0,0c0-.2,0-.3,0-.4,0-.3,0-.5-.1-.7h-.6c0,.1-.2.1-.2.1h-.2c-.2,0-.4-.1-.6-.2h0l.3.4c.2.3.2.6.1,1ZM19.7,28.1c0,0,.2,0,.3.1l-.3-.2h0s0,0,0,0c0,0,0,0,0,0ZM26,27.3c.1.3.4.3.9.4.1,0,.1,0,.2-.1l.2-.7c.5-1.8,1.3-3.1,2.4-4.2.3-.3.2-.5.1-.5-.2-.3-.6-.4-1-.4-.1,0-.3,0-.4,0-.1.1-.2.3-.2.4.3,1.5-.2,2.9-1.5,4.3h-.1c0,.2-.2.3-.2.3,0,0-.1.1-.2.2,0,0-.2.2-.2.3ZM25.6,27.6h0,0s0,0,0,0ZM16.9,27.3c0,0,0,.1.1.2,0,0,0,0,0,.1,0-.2,0-.3.2-.3,0,0,0,0-.1,0,0,0-.2,0-.3,0ZM24.1,27.1c0,0,0,.1,0,.2,0,0,.1,0,.2,0,0,0-.1,0-.2-.1ZM19.6,27h0s0,0,0,0h-.1ZM24.4,26.6h0c.3.2.6.3.8.2.3-.1.4-.3.4-.6.1-1.7.7-3.3,1.6-4.8.3-.4.3-.6.3-.7,0,0-.2-.2-.7-.3-.4,0-.7,0-.8,0,0,0-.1.3,0,.8.2,1.2-.2,2.4-.6,3.5l-.2.5c-.1.2-.3.4-.4.6-.2.3-.4.5-.4.8h0ZM14.5,20.9c1.1,1.4,1.7,3.1,2,4.9h0c0,.8.2,1,.6.9.8,0,1.3-.4,1.5-1.1,0,0,0,0,0,0,0,0-.1-.2-.2-.2-1.5-1.1-2.4-2.6-2.7-4.6,0-.2,0-.3.1-.4,0,0,0,0,0,0h0c0,0,0,0,0,0,0,0-.1.1-.2.2-.2.1-.4.1-.6,0,0,0,0,0,0,0,0,0,0,0,0,.1-.2.2-.3.3-.5.3h0ZM23.8,26.6s0,0,0,0h0s0,0,0,0c0,0,0,0,0,0ZM22.2,26.1h0c0,0,.2,0,.2,0,.4.1.8,0,1-.1.1-.1.1-.3,0-.4-.1-.5-.1-.9-.1-1.3h0c.1-1.4.3-2.8,1.2-4.2.4-.5.6-1,.3-1.2-.1-.1-.5-.1-.8-.2-.2,0-.4,0-.6,0-.2,0-.3,0-.3,0,0,0,0,.4,0,.5,0,.2,0,.5.2.7,0,.1,0,.2.1.4h0c0,.1,0,1.1,0,1.1l-.4,1.9c0,.6-.3,1.2-.6,1.7h0s0,0,0,0c-.2.3-.3.6-.5.9h0c0,0,.1.2.1.2ZM24.2,25.7s0,0,0,0c0,0,0,0,0,0h0ZM19.9,25.3c.1.3.4.4.9.5h.1s.4,0,.4,0l.3-.4h0s0,0,0,0h-.1c0,0-.3-.9-.3-.9v-1c0,0,0-1.2,0-1.2h0s.2-1.5.2-1.5h0s0-.1,0-.1c0-.2.1-.4.2-.5.2-.4.3-.8.4-1.2,0-.2.1-.5,0-.6h0s0,0-.5,0c-.3.1-.7,0-1,0h0c-.2,0-.3,0-.4,0,0,0,0,.2,0,.3.5,1.1.6,2.1.5,3.2l-.3,1.9h0c0,0,0,.2,0,.2l-.5,1.3ZM18.9,25.3s0,0,0,0c0,0,0,0,0,0,0,0,0,0,0,0,0,0,0,0,0,0h0ZM24.1,25.2h0s0,0,0,0h0ZM19.5,24.9c0,.1-.1.2-.2.3h0s0-.3,0-.3ZM27.4,22.9c-.3.7-.6,1.5-.8,2.3.4-.7.7-1.4.8-2.3ZM25.1,21.3c-.5,1.1-.7,2.4-.7,3.6.6-1.2.8-2.4.7-3.6ZM21.9,24h0s0,.4,0,.4l.3-.8h.3s-.2,0-.2,0l.4-1.9h.3c0,0-.2,0-.2,0v-.6s0-.2,0-.2c-.1-.3-.2-.6-.2-.9,0,.2-.1.4-.2.5,0,0,0,.1,0,.2,0,0,0,0,0,.1v.5c0,0,0,.2,0,.2h0s0,.8,0,.8h0s0,1.1,0,1.1h0s0,0,0,0v.7ZM30,21.7c0,0,.1.1.2.2,0,0,0,0,0,0,0-.1,0-.2,0-.3,0,0-.1,0-.2,0,0,0,0,0,0,0ZM27.8,21.6h0s0,0,.2-.1c.1-.1.3-.2.5-.2,0,0,0,0,0,0-.1,0-.2-.2-.2-.5,0,0,0,0,0,0h-.2c0,.1,0,.1,0,.1,0,.2-.1.5-.2.7ZM16.3,21.5s0,0,0,.1c0,0,0,0,0-.1h0ZM28.8,20.8c.4.2.8.3,1.2.3,0,0,0-.2,0-.3-.3-.9-.4-1.9-.4-2.8v-.5s0-.3,0-.3c0-.2,0-.4,0-.6,0-.4-.1-.5-.2-.6-.3-.1-.5-.2-.7-.2v.4c0,0,0,.1,0,.2.3,1.2.6,2.5,0,3.9,0,0,0,.3,0,.4ZM25.4,20.2v.3c.1-.1.2-.3.3-.4.1-.1.3-.2.5-.2-.1,0-.2-.2-.3-.3-.1-.2-.1-.4,0-.7v.2c0,.4-.3.8-.5,1.1h0ZM13.6,19.3c0,.4,0,.8.1,1.1,0-.2,0-.4,0-.5,0-.1,0-.2.2-.2,0,0-.1,0-.1,0,0,0-.1-.1-.2-.2ZM27.6,20.2s0,0,0,0c0,0,0,0,0,0,0,0,0,0-.1,0ZM26.9,14.1c-.1,0-.2,0-.3.1,0,0,0,.1,0,.4,0,0,0,.1,0,.2.3,1.1.5,2.4,0,3.5-.3.6-.4.9-.3,1.1,0,.2.4.3,1,.4,0,0,0,0,0,0,0,0,0,0,0,0-.3-1.5-.2-3.1.2-4.8,0-.2,0-.4-.3-.6-.2,0-.3-.1-.4-.1ZM28,19.5h0s0,0,0,0h0s0,0,0,0ZM15.8,19.3h0,0s0,0,0,0ZM12.8,15.4s0,0,0,0h0c.8,1.2,1.1,2.1,1.1,3,0,.5,0,.6.1.6.1,0,.4,0,.7,0,0,0,.1,0,.2,0,.2,0,.6-.2.6-.3,0,0,0-.1-.3-.4h0c0-.2-.1-.2-.1-.3l-1.1-1.6c-.2-.2-.2-.5-.2-.8,0-.2,0-.5-.1-.6,0,0-.2,0-.8.2-.2,0-.2.1-.2.1,0,0,0,0,0,0ZM27.8,17l.3,1.9s0,0,0-.1c0-.4,0-.7.2-1.1,0,0,0,0,0,0v-.3s-.1-.4-.1-.4c0-.1,0-.2,0-.3,0,0,0-.1,0-.2,0-.2-.1-.5,0-.7v-.2s0,0,0,0c0,.5-.2.9-.2,1.4ZM25.3,18.5c0,0,.1,0,.2.1,0,0,0,0,0,.1h0c0,0,0-.1,0-.2,0,0,0-.1,0-.2,0,0-.1,0-.2,0ZM23.1,17.9c0,.1,0,.3,0,.5,0,0,0,0,0,0,0,0,.2-.1.3-.1-.1,0-.2-.2-.3-.3ZM19.8,17.5c0,.2,0,.5,0,.7,0,0,0,0,0,0,0,0,.2-.2.4-.3-.2,0-.3-.2-.4-.4,0,0,0,0,0,0ZM23.6,17.8c0,0,.2,0,.3,0,.1,0,.3,0,.5,0,0,0,0,0,.1,0,0,0,0,0,.1,0,.2,0,.4,0,.5,0,0,0,0-.3,0-.3h0c-.3-1.4-.6-2.7-.2-4.1v-.6c0,0,0-.3,0-.3h0c-.5-.2-.7-.2-1,0,0,0,0,.2,0,.3,0,.2.1.5.2.7,0,.1,0,.2,0,.3v.7c0,.1,0,.2,0,.3,0,.2,0,.4,0,.5h0c0,.1,0,.3,0,.3h0c.2.5,0,.9-.2,1.3,0,.1-.1.2-.2.3,0,0,0,.1-.1.2v.2ZM22.1,17.7c.1,0,.2,0,.3,0,0-.3,0-.6,0-.8,0,0,0,0,0,0h0c0,.3,0,.4,0,.5,0,0,0,0,0,0h0s0,0,0,0c0,.1-.2.2-.3.3ZM20.3,11.5c.3.9.4,1.8.4,2.6v.3s-.2,2.1-.2,2.1c0,.2-.1.3-.2.5,0,0-.1.2-.1.2.4.5.9.4,1.7.1,0,0,.1,0,.1,0,0-.1,0-.3,0-.4-.5-1.3-.5-2.7-.5-4h0c0,0,0-.1,0-.2,0-.1,0-.2,0-.3.1-.5.2-.8,0-1-.1-.1-.5-.1-1,0,0,0-.1,0-.2.1ZM26,16.3c0,.1,0,.2,0,.4,0-.1,0-.3,0-.4ZM23.2,14.7c-.2.6-.2,1.2-.2,1.8.2-.6.3-1.2.2-1.8ZM23.6,16.1c0,0,0,.1,0,.2,0,0,0-.1,0-.2h0ZM14.4,15.8c0,.1,0,.3,0,.4h0c0,0,0-.2-.1-.4ZM23.7,15.6s0,0,0,.1h0c0,0,0,0,0-.1ZM12.2,14.8c0,.1,0,.2.1.3,0-.1.2-.2.3-.3,0,0,0,0,0,0h-.4ZM13.8,14.5c0,0,.2,0,.2,0,0,0,0,0,0,0,0-.1,0-.3-.1-.4,0,0-.1.2-.2.2ZM12.6,14.4h0c.4,0,.7,0,.9-.3,0,0,0,0,0,0-.1,0-.3-.1-.3-.3l-.8-1.3c0-.2-.1-.2-.4-.3,0,0,0,0,0,.1.3.6.5,1.1.6,1.6h0c0,0,0,.2,0,.2v.4ZM12.2,14.3s0,0,0,0h.2s-.1,0-.1,0ZM13,12.5h0c0,0,.5,1,.5,1,0,0,0,0,0,0-.2-.4-.4-.7-.7-1ZM19.9,10.4c0,.3,0,.5,0,.8,0-.1.2-.2.3-.3,0,0,0,0-.1,0-.1-.1-.2-.3-.2-.4ZM21.6,10.8c0,0,.1,0,.2.1,0,0,0,0,0,0,0,0,0-.2,0-.2,0,0-.1,0-.2,0ZM20.3,7c0,.4.1.7.2,1v.3s0,0,0,0c0,.2,0,.3,0,.5,0,.3,0,.5,0,.7,0,.5,0,.9,0,.9,0,0,.4,0,1-.1,0,0,0,0,0,0-.5-1-.5-2.1-.3-3.3-.3,0-.6,0-.9,0ZM21.5,6.5h0c0,.1,0,.1,0,.1,0,0,0-.2,0-.2,0,0,0,0-.1,0h0ZM20,6.5s0,0,0,.1h0s.1,0,.1,0c0,0,0,0,0,0,0,0-.2,0-.2,0ZM20.7,6.3v.2h0v-.2ZM20.9,6.5s0,0,0,0h0s0,0,0,0c0,0,0,0,0,0ZM20.3,6c0,0,.2,0,.3,0,.1,0,.3,0,.4,0,0,0,0,0,0,0-.2-.8-.2-1.5-.1-2.2,0,0,0,0,0,0-.2,0-.4,0-.6,0,0,0,0,0,0,0,.3.8.3,1.4,0,1.9,0,.1,0,.2-.1.2ZM20.1,5c0,0,0,.1,0,.2,0,0,0-.1,0-.2ZM20,3.2c0,0,0,.2,0,.2h0s.1,0,.1,0c0,0,0,0,0,0,0,0,0,0,0,0ZM20.5,2.9s.1,0,.2,0c0,0,0,0,.1,0,0-.2-.1-.3-.2-.5,0,.2,0,.3-.1.5,0,0,0,0,0,0ZM20.2,2c0,.3-.1.5-.2.8,0,0,0,0,0,0,0-.2.1-.4.1-.7Z"/>
      </g>
      <path class="cls-1" d="M19.5,41.7c-.1-2.8.1-5.5-.4-8.3,0,0,0,0,.1-.1,0,0,.1.2.1.2.3,1.2.1,2.3.2,3.5,0,1.6.1,3.1.2,4.7,0,0-.1,0-.2,0Z"/>
      <path class="cls-1" d="M20,22.9c0,0,0,.1,0,.2,0,0,0-.1,0-.2Z"/>
      <path class="cls-1" d="M19.7,23.9s0,0,0,.1c0,0,0,0,0-.1Z"/>
      <path class="cls-1" d="M20,22.7s0,0,0,0c0,0,0,0,0,0Z"/>
      <path class="cls-1" d="M21.5,11.9c0-.2,0-.4,0-.6,0,.3,0,.5,0,.8,0,.2,0,.5,0,.7,0,0,0,0,0,0,0,0,0,.1,0,.2,0,1.3,0,2.5.4,3.7,0,0,0,.2,0,.3,0,0,0-.2,0-.3-.2-1.6-.5-3.2-.3-4.9Z"/>
      <path class="cls-1" d="M14.4,16.9c0-.2,0-.4-.1-.5.4.5.7,1.1,1.1,1.6,0,0,.1.2.2.3,0,0,0,0,0,0-.3-.5-.7-.9-1-1.4Z"/>
      <path class="cls-1" d="M21,32.5c0,.2-.2.2-.4.2-.3,0-.7,0-.9-.3,0,0,0,0,.1,0,0,0,0,0,0,0,.3,0,.6.2,1,0,0,0,0,0,0,0Z"/>
      <path class="cls-1" d="M21.2,30.1c0-.2-.1-.4-.2-.6,0-.2-.2-.3-.3-.5,0,0,0,0,0,0,.2.2.4.4.6.6,0,0,0,.1,0,.2,0,0,0,.2-.1.3Z"/>
      <path class="cls-1" d="M19.6,26s0,0,0,0c-.3,0-.3-.3-.4-.5,0,0,0,0,0,0,0,.2.5.2.4.5Z"/>
      <path class="cls-1" d="M21.4,26.2c0,0-.1,0-.2,0,0-.1,0-.2-.1-.3.1,0,.2,0,.3-.1,0,.1,0,.3,0,.4Z"/>
      <path class="cls-1" d="M21.6,25.6v-.5c0,0,.2,0,.2.1-.1.1,0,.4-.2.4Z"/>
      <path class="cls-1" d="M23.9,14.7c0,.3,0,.6,0,1-.2-.3,0-.6,0-1Z"/>
      <path class="cls-1" d="M22.1,26.4s0,0,0,0c0,0,0,.2,0,.3-.2,0-.1,0,0-.2,0,0,0,0,0-.1Z"/>
      <path class="cls-1" d="M19.2,26.3s0,0,0,0c0,0,0-.1,0-.2,0,0,0,0,0,0,0,0,0,.1,0,.2Z"/>
      <path class="cls-1" d="M22,25s0,0,0,0c0,0,0,0,.1,0,0,0,0,0-.1,0v-.2Z"/>
      <path class="cls-1" d="M24,15.8c0,0,0,.1,0,.2,0,0-.1,0-.2,0,0,0,.1,0,.2-.1Z"/>
      <path class="cls-1" d="M20.7,26c0,0,.2,0,.2,0,0,0-.1.2-.2,0Z"/>
      <path class="cls-1" d="M23.3,29.5s0,0-.1,0v-.2c.1,0,.1,0,.1.1Z"/>
      <path class="cls-1" d="M21.7,22.6c0,.1,0,.3,0,.4,0-.1,0-.3,0-.4Z"/>
      <path class="cls-1" d="M22.2,32.8c0,0-.2,0-.3,0,0,0,.2,0,.3,0Z"/>
      <path class="cls-1" d="M21.8,21.8c0,0,0,.2,0,.2,0,0,0-.2,0-.2Z"/>
      <path class="cls-1" d="M21.8,24.7c0,0,0,.1,0,.2,0,0,0-.1,0-.2Z"/>
      <path class="cls-1" d="M19.7,26.7s0,0,0,.1c0,0,0,0,0-.1Z"/>
      <path class="cls-1" d="M23,21c0,0,0-.2,0-.2,0,0,0,.2,0,.2Z"/>
      <path class="cls-1" d="M21.8,26s0,0,0,.1c0,0,0,0,0-.1Z"/>
      <path class="cls-1" d="M22.6,29.7c0,0-.2,0-.3,0,0,0,.2,0,.3,0Z"/>
      <path class="cls-1" d="M26.2,25.9c0,0,0,.2,0,.2,0,0,0-.2,0-.2Z"/>
      <path class="cls-1" d="M21.4,22.7c0,0,0-.1,0-.2,0,0,0,.1,0,.2Z"/>
      <path class="cls-1" d="M19.5,26.3c0,0,0,.1,0,.2,0,0,0-.1,0-.2Z"/>
      <path class="cls-1" d="M21.7,24.2c0,0,0,.1,0,.2,0,0,0-.1,0-.2Z"/>
      <path class="cls-1" d="M21.9,21c0,0,0,.1,0,.2,0,0,0-.1,0-.2Z"/>
      <path class="cls-1" d="M22.9,21.9c0,0,0-.1,0-.2,0,0,0,.1,0,.2Z"/>
      <path class="cls-1" d="M21.4,24.5s0,0,0,0c0,0,0,0,0-.1,0,0,0,0,0,.1Z"/>
      <path class="cls-1" d="M23.2,22.4c0,0,0,.1,0,.2,0,0,0-.1,0-.2Z"/>
      <path class="cls-1" d="M23.4,28.7s0,0,0-.1c0,0,0,0,0,.1Z"/>
      <path class="cls-1" d="M21.5,21.7c0,0,0-.1,0-.2,0,0,0,.1,0,.2Z"/>
      <path class="cls-1" d="M23.4,21.5c0,0,0,.1,0,.2,0,0,0-.1,0-.2Z"/>
      <path class="cls-1" d="M21.6,21c0,0,0-.1,0-.2,0,0,0,.1,0,.2Z"/>
      <path class="cls-1" d="M25,25.1s0,0,0,0c0,0,0,0,0,0Z"/>
      <path class="cls-1" d="M20.2,23.7s0,0,0,0c0,0,0,0,0,0,0,0,0,0,0,0h0Z"/>
      <path class="cls-1" d="M21.3,23.4s0,0,0,0c0,0,0,0,0,0Z"/>
      <path class="cls-1" d="M23,21.6s0,0,0,0c0,0,0,0,0,0Z"/>
      <path class="cls-1" d="M22.8,22.3s0,0,0-.1c0,0,0,0,0,.1Z"/>
      <path class="cls-1" d="M21,26.4s0,0-.1,0c0,0,0,0,.1,0Z"/>
      <path class="cls-1" d="M22,20.7s0,0,0,.1c0,0,0,0,0-.1Z"/>
      <path class="cls-1" d="M22.6,33.1s0,0,0,0c0,0,0,0,0,0Z"/>
      <path class="cls-1" d="M22.6,33.4s0,0,0,0c0,0,0,0,0,0Z"/>
      <path class="cls-1" d="M20.5,26.4s0,0,0,0c0,0,0,0,0,0Z"/>
      <path class="cls-1" d="M21.7,29.6s0,0,0,.1c0,0,0,0,0-.1Z"/>
      <path class="cls-1" d="M19.5,27.2s0,0,0,0c0,0,0,0,0,0Z"/>
      <path class="cls-1" d="M23,23.2s0,0,0,0c0,0,0,0,0,0Z"/>
      <path class="cls-1" d="M22.8,26.9h0s0,0,0,0c0,0,0,0,0,0Z"/>
      <path class="cls-1" d="M21.8,22.2s0,0,0,0c0,0,0,0,0,0,0,0,0,0,0,0Z"/>
      <path class="cls-1" d="M21.4,22.2s0,0,0,0c0,0,0,0,0,0,0,0,0,0,0,0Z"/>
      <path class="cls-1" d="M22.9,22.1s0,0,0,0c0,0,0,0,0,0,0,0,0,0,0,0Z"/>
      <path class="cls-1" d="M22.4,26.8h0s0,0,0,0c0,0,0,0,0,0h0Z"/>
      <path class="cls-1" d="M24.2,32s0,0,0,0c0,0,0,0,0,0Z"/>
      <path class="cls-1" d="M25.4,28s0,0,0,0c0,0,0,0,0,0Z"/>
      <path class="cls-1" d="M24.1,26.7s0,0,0,0c0,0,0,0,0,0,0,0,0,0,0,0Z"/>
      <path class="cls-1" d="M18.9,25.7s0,0,0,0c0,0,0,0,0,0,0,0,0,0,0,0Z"/>
      <path class="cls-1" d="M21.9,21.4s0,0,0,0c0,0,0,0,0,0,0,0,0,0,0,0Z"/>
      <path class="cls-1" d="M24.4,32s0,0,0,0c0,0,0,0,0,0Z"/>
      <path class="cls-1" d="M23.8,24.4s0,0,0,0c0,0,0,0,0,0,0,0,0,0,0,0Z"/>
      <path class="cls-1" d="M21.6,20.7s0,0,0,0c0,0,0,0,0,0,0,0,0,0,0,0Z"/>
      <path class="cls-1" d="M21.7,23.3s0,0,0,0c0,0,0,0,0,0,0,0,0,0,0,0Z"/>
      <path class="cls-1" d="M23.4,20.4s0,0,0,0c0,0,0,0,0,0Z"/>
      <path class="cls-1" d="M23.1,29.1s0,0,0,0c0,0,0,0,0,0Z"/>
      <path class="cls-1" d="M22.3,29.2s0,0,0,0c0,0,0,0,0,0Z"/>
      <path class="cls-1" d="M22.8,29.2s0,0,0,0c0,0,0,0,0,0Z"/>
      <path class="cls-1" d="M19.6,25.3s0,0,0,0c0,0,0,0,0,0,0,0,0,0,0,0Z"/>
      <path class="cls-1" d="M22.7,34s0,0,0,0c0,0,0,0,0,0,0,0,0,0,0,0Z"/>
      <path class="cls-1" d="M24.1,25.2s0,0,0,0c0,0,0,0,0,0,0,0,0,0,0,0Z"/>
      <path class="cls-1" d="M22.7,26.9s0,0,0,0c0,0,0,0,0,0Z"/>
      <path class="cls-1" d="M19.8,26.8s0,0,0,0c0,0,0,0,0,0Z"/>
      <path class="cls-1" d="M21.7,24s0,0,0,0c0,0,0,0,0,0,0,0,0,0,0,0Z"/>
      <path class="cls-1" d="M24.3,29.6s0,0,0,0c0,0,0,0,0,0Z"/>
      <path class="cls-1" d="M24.5,29.6h0s0,0,0,0Z"/>
      <path class="cls-1" d="M23.3,26.9s0,0,0,0c0,0,0,0,0,0Z"/>
      <path class="cls-1" d="M24.2,26.8s0,0,0,0c0,0,0,0,0,0Z"/>
      <path class="cls-1" d="M21.7,27.8s0,0,0,0c0,0,0,0,0,0,0,0,0,0,0,0Z"/>
      <path class="cls-1" d="M23.3,29.8s0,0,0,0c0,0,0,0,0,0,0,0,0,0,0,0Z"/>
      <path class="cls-1" d="M22.5,23.7s0,0,0,0c0,0,0,0,0,0Z"/>
      <path class="cls-1" d="M19.9,27.9s0,0,0,0c0,0,0,0,0,0,0,0,0,0,0,0Z"/>
      <path class="cls-1" d="M22,33.7c0,.3-.3.3-.4.5-.1-.4-.3-.8-.4-1.2,0,0,0,0,0,0,.2.3.8.2.8.8Z"/>
      <path class="cls-1" d="M20.8,36.5c0,0,0-.5.1-1,0,0,.1-.2.2-.2,0,0,0,.2,0,.3,0,.6-.2,1.1-.2,1.7,0,.2,0,.3,0,.5,0-.2,0-.3,0-.5,0-.1,0-.3,0-.8Z"/>
      <path class="cls-1" d="M19.9,34.9v.9c0-.2,0-.4-.1-.5,0-.4-.1-.8-.2-1.2,0-.1,0-.3,0-.4,0,.1.2.3.2.4,0,.4,0,.8,0,.8Z"/>
      <path class="cls-1" d="M18.8,33.2c-.2-.3-.4-.6-.6-.9h0c0-.2,0-.2,0-.2.3.3.5.6.6,1.1Z"/>
      <path class="cls-1" d="M24.3,37.9s0,0,0,0c-.2-.1-.2,0-.2.1,0,.9,0,1.7-.1,2.6,0,0,0,.1,0,.2,0,0,0-.2,0-.2,0-1.8.2-3.6-.2-5.4,0-.2-.2-.4-.3-.6,0,0,0-.2-.1-.3.1,0,.2,0,.3.1,0,0,0,0,0,0,.6,1,.4,2.1.5,3.2,0,0,0,.2,0,.3,0,0,0-.2,0-.3,0-.6,0-1.1,0-1.7,0,.5,0,.9.1,1.4,0,.1,0,.3,0,.4,0,0,0,0,0,0Z"/>
      <path class="cls-1" d="M24.4,33.1s0,0-.1,0c0,0-.1,0-.2,0,0,0-.2,0-.2,0,0,0,0,0,0,0,1.5-.5-.7,0,0-.3h-.2c0-.1.1-.2.2-.2.4,0,.9-.2,1.3-.3-.2.2-.4.5-.6.7,0,0,0,0,0,0Z"/>
      <path class="cls-2" d="M23.3,34c-.1,0-.3,0-.3-.1-.1-.2,0-.4,0-.6,0-.1.2-.2.3-.3,0,.1.2.2.2.3,0,.2.1.5-.1.6,0,0-.2,0-.3-.1,0,0,0,.1,0,.2ZM23.4,33.4s0,0,0,0c0,0,0,0-.1.1,0,0,0,0,0,0,0,0,0,0,.2-.1ZM23.1,33.8c0,0,0-.1,0-.1,0,0,0,0,0,0,0,0,0,0,0,.1,0,0,0,0,0,.1Z"/>
      <path class="cls-1" d="M24.8,39.6c0,.1,0,.2,0,.4,0,.1,0,.2,0,.4,0,0,0,0,0,0,0,.3.1.7-.2,1,0-.3,0-.7,0-1,0-.3,0-.5.1-.8Z"/>
      <path class="cls-1" d="M23.3,34c0,0,0-.1,0-.2,0,0,.2,0,.3.1h-.2Z"/>
      <path class="cls-1" d="M17.2,26.8c-.7-.2-.6-.8-.7-1.3,0-.3,0-.5-.1-.8.1.3.2.5.3.8.2.4-.1,1.5,1.1.9.7-.4.9-.7.1-1.2-.2,0-.2-.3-.3-.5.1.1.3.2.4.3.4.2.7.6.5,1-.2.5-.8.6-1.2.8Z"/>
      <path class="cls-1" d="M14.3,20.6c.4.4.6.6.8.9.2.3.2.6.3.9,0,0,0,0,0,0-.4-.5-.7-1-1.1-1.5,0,0,0,0,0-.3Z"/>
      <path class="cls-1" d="M23.6,24.5c.2-1.8.5-3.5,1.5-4.9,0,0,0-.1.1-.2,0,0,0,.2,0,.2-.6,1.2-1.3,2.4-1.4,3.9,0,.3,0,.6,0,1,0,.3,0,.5,0,.8,0-.3,0-.6,0-.7Z"/>
      <path class="cls-1" d="M23.8,21c-.3,1.1-.6,2.2-.8,3.3,0,0,0,0,0,0,0,0,0,0,0-.1.4-1.6,1-3.2.3-4.9,0,0,0,0,0,0,0,0,0,0,0,0,.2.5.5,1,.5,1.6Z"/>
      <path class="cls-1" d="M22.9,26.4c-.2,0-.4-.2-.7-.3,0,0,0,0,0-.1,0,0,.1,0,.2,0,.4.1.9.4,1.3,0,0,0,0,0,.1,0,0,0,0,.1,0,.1-.1.3-.4.3-.8.3Z"/>
      <path class="cls-1" d="M21.2,22.3c0-1.2.2-2.3.8-3.3,0,0,0-.3,0-.4,0-.2,0-.3,0-.4,0,0,.1,0,.1,0,0,.2.2.4,0,.6-.3.9-.8,1.8-.9,2.7,0,.3,0,.5,0,.8,0,.3,0,.5-.1.8v-.8Z"/>
      <path class="cls-1" d="M20.6,20.8c0-.6,0-1.1-.2-1.6-.1-.2-.2-.5,0-.7,0,.1,0,.3,0,.3.4.9.3,1.8.2,2.7,0,0,0,.2,0,.3,0,0,0-.2,0-.3,0-.2,0-.4,0-.7Z"/>
      <path class="cls-1" d="M21.3,25.1c.2.2.1.4,0,.6-.3.3-.6.3-.9,0-.2-.1-.3-.3-.4-.5,0,0,.1,0,.2,0,.3.3.6.5,1,.2,0,0,0,0,0,0,0,0,0,0,0,0,0-.1,0-.2.1-.3Z"/>
      <path class="cls-1" d="M25,27c-.2,0-.5,0-.6-.3.2,0,.3,0,.5,0,.4,0,.6-.1.7-.5.3-1.4.7-2.8,1.3-4.1.2-.5.5-.9.8-1.3,0,0,0,0,0,0,0,.1,0,.3,0,.4-.9,1.2-1.4,2.6-1.7,4.1,0,.3-.1.6-.1,1,0,.5-.3.7-.8.8Z"/>
      <path class="cls-1" d="M26.1,21.6c0,1-.3,1.9-.6,2.7,0,0,0,0,0,0,0,0,0,0,0-.1.2-.8.5-1.7.5-2.6,0-.2,0-.4,0-.6,0,.2.2.5.2.6Z"/>
      <path class="cls-1" d="M20.8,17.5c-.1,0-.3,0-.3,0-.1-.1-.2-.3-.3-.4,0,0,.2.2.3.2.3,0,.6,0,.9,0,.1,0,.2,0,.4,0-.1.1-.3.2-.4.3-.1,0-.3,0-.5,0Z"/>
      <path class="cls-1" d="M20.7,11.7c0-.2,0-.3,0-.5,0,0,.2.2.2.2.3,0,.5,0,.5.4-.2,0-.3,0-.5,0,0,0,0,0,0,0,0,0-.1,0-.2,0Z"/>
      <path class="cls-1" d="M20.5,13.3c0-.6-.2-1.2-.3-1.9,0,0,0,0,0,0,0,.1,0,.2.1.3,0,0,0,0,0,.1,0,0,0,0,0,.1,0,.5,0,.9,0,1.4Z"/>
      <path class="cls-1" d="M26.8,16.9c0-.9,0-1.6-.3-2.2,0,0,0,0,0-.1,0,0,0,0,.1,0,.4,1,.4,2.1.2,3.1,0,0,0,0,0,.1,0,0,0,0,0-.1,0-.4,0-.8.1-.9Z"/>
      <path class="cls-1" d="M26.9,14c.2.1.4.2.6.3-.1,0-.2.2-.3.1-.2,0-.3-.2-.5-.3,0,0,.2,0,.2-.1Z"/>
      <path class="cls-1" d="M25.4,17.5c0,.2-.2.4-.3.4-.2,0-.2-.2-.1-.3,0,0,.1,0,.2,0,0-.2,0-.5-.1-.7-.2-.6-.2-1.3-.2-1.9,0,0,0,0,0,0,0,0,0,0,0,0,0,.8.1,1.7.4,2.5Z"/>
      <path class="cls-1" d="M24.5,12.8c-.2,0-.4.2-.5,0,0,0,0-.2,0-.3,0,0,.2,0,.1.1.2,0,.4,0,.6,0,0,0,0,0,0,0,0,0,0,0,0,0,0,0,0,0,0,0,0,0,0,0,0,.1,0,.3-.2,0-.3,0Z"/>
      <path class="cls-1" d="M29.9,22.4c0,.2-.2.4-.3.5-1,1.1-1.6,2.3-2.1,3.6,0,0,0,0-.1.1,0,0,0-.1,0-.2.5-1.3,1.2-2.6,2.1-3.7.1-.1.2-.3.2-.5,0,0,0-.1,0-.2,0,0,0,.2,0,.3Z"/>
      <path class="cls-1" d="M28.9,21.7c.6,0,.9.2.7.7,0,0-.1.2-.2.2-.1,0-.3-.1-.3-.2,0-.2,0-.3.3,0,.2-.2.2-.3,0-.4-.1,0-.2,0-.4,0,0,0-.1,0-.2-.1,0,0,.2,0,.1,0Z"/>
      <path class="cls-1" d="M27.3,27.4s0,0-.1.1c-.3.2-.7.2-.9-.1,0,0,0-.1,0-.2,0,0,0,0,.1,0,.4.2.7.1,1-.1,0,0,0,.1,0,.2Z"/>
      <path class="cls-1" d="M28.7,15.9c.4.1.6.2.9.3,0,0-.2.3-.2.3-.2,0-.5-.2-.7-.4,0,0,0-.2,0-.2Z"/>
      <path class="cls-1" d="M29.9,20.8c-.1.1-.2.4-.3.4-.2,0-.5-.1-.5-.4,0,0,0-.1,0-.1.2,0,.5,0,.7.1Z"/>
      <path class="cls-1" d="M29.1,19.5c0,.3-.3.7-.4,1.2,0,0,0,0,0,0,0,0,0-.1,0-.2.1-.6.3-1.1.4-1.7,0,0,0,0,0,0,0,.1,0,.3,0,.7Z"/>
      <path class="cls-1" d="M12.8,15.2c.2.4.4.7.6,1.1,0,.2.2.4.2.6,0,0,0,0,0,0-.3-.4-.5-.8-.8-1.3,0-.1,0-.3-.1-.4,0,0,0,0,0,0Z"/>
      <path class="cls-2" d="M14.4,16.9c.3.5.7.9,1,1.4-.7-.2-.8-.8-1-1.4Z"/>
      <path class="cls-1" d="M14.8,19.2c0,0,0-.2,0-.3,0,0,.1,0,.1,0,.3.2.4-.6.6,0,0,0-.4.2-.7.4Z"/>
      <path class="cls-1" d="M25.2,33.7c.4-.4.7-.9.6-1.5,0,0,0,0,0,0,0,0,0,0,.1.1.3.7,0,1.2-.7,1.5,0,0,0,0,0,0Z"/>
      <path class="cls-1" d="M25.8,33.7c0,0-.2.1-.3.2,0,0,0,0-.1,0,0,0,0-.1,0-.2.4-.4.8-.8.6-1.4,0,0,0,0,0,0,0,0,.1,0,.1.1.3.6,0,1-.4,1.3Z"/>
      <path class="cls-1" d="M25,37.3c0-.6.1-1.2.2-1.8,0,0,0,0,0,0,0,0,0,0,.1,0,0,0,0,0,0,0,0,.6-.1,1.3-.2,1.9,0,0,0,0,0,0,0,0,0,0,0,0,0,0,0,0,0,.1,0,0,0-.1,0-.2Z"/>
      <path class="cls-1" d="M25.2,33.7s0,0,0,0c0,0,0,0,0,0,0,0,0,0,0,0Z"/>
      <path class="cls-1" d="M21.1,8.9c0-.2,0-.3,0-.4,0,0,0,.2,0,.3,0,.5.2.9.3,1.4,0,0,0,.2,0,.2,0,0,0-.1,0-.2,0-.5-.2-1-.2-1.3Z"/>
      <path class="cls-1" d="M20.9,7.5c-.1-.1-.3-.2-.4-.3,0,0,0-.2.1-.1,0,0,0,.1,0,.2,0,0,.1,0,.2-.1.2,0,.4,0,.3.2,0,0-.2.1-.3.2Z"/>
      <path class="cls-1" d="M20.4,10.2c0-.2,0,0,0,.1,0,.4-.2.4-.2,0,0-.3,0-.6.1-.9,0,.1,0,.3,0,.7Z"/>
      <path class="cls-1" d="M22.8,31.8s0,0,0,0c.1,0,.2-.2.4-.3,0,0,0,0,0,0,0,0,0,0,0,0,0,0,0,0,0-.1,0,0,0,0,.1-.1,0,.2,0,.5,0,.6-.5.5-1.2.5-1.8.1,0,0,0-.1,0-.2,0,0,.2,0,.3,0,.3,0,.7.1,1,.2Z"/>
      <path class="cls-1" d="M24.3,28c0,0,0-.3.1-.3.3,0,.5,0,.8,0,0,0,0,.1,0,.2-.2.1-.4.1-.6,0,0,0,0,0,0,0,0,0,0,.2-.1.3,0,0,0-.2,0-.3Z"/>
      <path class="cls-1" d="M20.4,3.8c0,0,0,0,0,0,.2.3.5,0,.7,0-.2.1-.3.3-.5.3-.1,0-.3,0-.3-.4Z"/>
      <path class="cls-1" d="M17.7,27.6c.4-.3.8-.6,1.3-1,0,0,0,0,0,0,0,0,0,.2-.1.3-.2.4-1,.4-.7,1.1,0,.2,0,.4.1.4.1,0,.2-.2.3-.3,0,0,.2-.1.3-.2,0,.1,0,.2,0,.3,0,0-.1,0-.1,0-.2.2-.3.5-.6.4-.5-.1-.5-.5-.5-1Z"/>
      <path class="cls-1" d="M20.9,30.6c-.3.4-.6.5-1,.3-.5-.2-.9-.6-1.1-1.1,0,0,.2,0,.2,0,0,0,0,.1.1.2,0,0,.2.2.3.3.4.5,1,.6,1.5.3Z"/>
      <path class="cls-1" d="M19.4,29.5c0-.1.1-.2.2-.3,0,0,0,0,0,0,0,0,0,0,0,0,0,0,0,0,0,0,0,0,0,0,0,0-.2.1-.5.2-.7.3.2-.1.4-.4.5-.4.3,0,.2-1.1.6-.2-.1.2-.2.5-.5.6Z"/>
      <path class="cls-1" d="M20.1,31.4c0,0-.2,0-.3,0-.3,0-.5-.2-.6-.5.2,0,.3.2.5.2.2,0,.4,0,.5,0,.1,0,.3-.3.4,0,0,.3-.3.3-.5.3Z"/>
      <path class="cls-1" d="M23.2,28.2c.1-.3.2-.5.3-.8,0-.1.1-.3.2-.4,0,.1,0,.3,0,.4,0,.4-.2.9-.5,1.2h0s0,0,0,0c0,0,0,0,0,0,0,0,0,0,0,0,0,0,0,0,0,0,0,0-.2,0-.2,0,.2-.2.3-.4.5-.6Z"/>
      <path class="cls-1" d="M22.7,27c.2.3.7-.3.7.3,0,0-.1,0-.2,0,0,.1-.4-.3-.3.1h0s0,0,0,0c0-.1,0-.3,0-.4Z"/>
      <path class="cls-1" d="M20.6,28.2c-.8-.4-.4-1.2-.8-1.8,0,0,0,0,0,0,0,0,.2.2.3.3,0,0,0,.2,0,.3.1.4,0,.9.5,1.1,0,0,.1.2,0,.2Z"/>
      <path class="cls-1" d="M20.8,26.6c.9-.3.6.4.7.8-.2-.3-.3-.7-.7-.8Z"/>
      <path class="cls-1" d="M24.7,30.2c.4,0,1-.4.8.5h0c-.3.1-.6.3-.9.4-.1-.2.1-.2.2-.2,0-.1.2-.2.3-.3,0,0,0,0,0,0,0,0,0,0,0,0,0,0,0,0,0,0-.4.1,0-.3-.2-.3,0,0-.4.2-.2-.1Z"/>
      <path class="cls-1" d="M25.5,30.8c0-.1.2-.3.2-.4,0,.1,0,.2,0,.3-.2.5-.6.7-1.1.8,0,0,0,0,0-.1.3-.1.7-.2.8-.6h0Z"/>
      <path class="cls-1" d="M12.4,13.6c-.1-.4-.3-.7-.4-1.1,0-.1,0-.3-.1-.4.2.2.3.4.5.5,0,.3,0,.6,0,1Z"/>
      <path class="cls-1" d="M26,28.3c.2.1.7-.2.7.4,0,.4,0,1-.6,1,.1-.1.2-.3.3-.4.2-.4.2-.7-.3-.8,0,0,0,0,0,0,0,0,0,0,0-.1Z"/>
      <path class="cls-1" d="M23.4,33.4c0,0-.1,0-.2.1,0,0,0,0,0,0,0,0,0,0,.1-.1,0,0,0,0,0,0Z"/>
      <path class="cls-1" d="M23.1,33.8c0,0,0,0,0-.1,0,0,0,0,0-.1,0,0,0,0,0,0,0,0,0,0,0,.1Z"/>
      <path class="cls-3" d="M21.9,32.7c-.3,0-.6-.2-.9-.3,0,.2-.2.2-.4.2-.3,0-.7,0-.9-.3,0,0,0,0,.1,0,0,0,0,0,0,0,.3,0,.6.2,1,0-.8,0-1.4-.4-2-.8-.3-.2-.7,0-.8.4h0c0,.2,0,.2,0,.3.3.5.7,1.1.8,1.7.5,2.5.3,5.1.3,7.7,0,0,.2,0,.2,0-.1-2.8.1-5.5-.4-8.3,0,0,0,0,.1-.1,0,0,.1.2.1.2.3,1.2.1,2.3.2,3.5,0,1.6.1,3.1.2,4.7.5,0,1,0,1.4,0,0-1.2,0-2.5,0-3.7,0-1.2,0-2.5.7-3.6.4-.5.6-1.1.4-1.7,0,0-.2,0-.3,0ZM18.2,32.3s0,0,0-.1c0,0,0,0,0,0,.3.3.5.6.6,1.1-.2-.3-.4-.6-.6-.9ZM19.9,35.8c0-.2,0-.4-.1-.5,0-.4-.1-.8-.2-1.2,0-.1,0-.3,0-.4,0,.1.2.3.2.4,0,.4,0,.8,0,.8v.9ZM21.1,35.6c0,.6-.2,1.1-.2,1.7,0,.2,0,.3,0,.5,0-.2,0-.3,0-.5,0-.1,0-.3,0-.8,0,0,0-.5.1-1,0,0,.1-.2.2-.2,0,0,0,.2,0,.3ZM21.6,34.2c-.1-.4-.3-.8-.4-1.2,0,0,0,0,0,0,.2.3.8.2.8.8,0,.3-.3.3-.4.5Z"/>
      <path class="cls-3" d="M18.9,25.7s0,0,0,0c-.1-.1-.2-.3-.4-.4-1.6-1.1-2.3-2.6-2.6-4.5,0-.1,0-.2.1-.3,0,.1,0,.2,0,.3,0,.3,0,.5,0,.8,0-.2,0-.5,0-.7,0-.3.3-.8,0-1-.3-.2-.5.3-.7.5,0,0-.2,0-.3,0,0,0,0-.1-.1-.2,0,0,.2,0,.2,0,.2-.1.4-.2.6-.4,0,0,0-.2-.1-.2-.4,0-.9.2-1.3.3,0,0,0,.1-.1.2,0,.2,0,.4.3.2,0,0,.1.2.1.3,0,.1-.2.3-.4.2-.3-.2-.2-.4-.1-.7,0,0,0-.1,0-.2,0,0-.2,0-.2,0,0,.4,0,.7.1,1,1.1,1.5,1.8,3.1,2.1,5,0,.6,0,1.2.9,1.2.8,0,1.5-.5,1.7-1.4ZM15.4,22.4c-.4-.5-.7-1-1.1-1.5,0,0,0,0,0-.3.4.4.6.6.8.9.2.3.2.6.3.9,0,0,0,0,0,0ZM17.2,26.8c-.7-.2-.6-.8-.7-1.3,0-.3,0-.5-.1-.8.1.3.2.5.3.8.2.4-.1,1.5,1.1.9.7-.4.9-.7.1-1.2-.2,0-.2-.3-.3-.5.1.1.3.2.4.3.4.2.7.6.5,1-.2.5-.8.6-1.2.8Z"/>
      <path class="cls-3" d="M21.9,26.2c0,0,.2.1.2.2,0,0,0,0,0,0,.1,0,.3,0,.4.1.9.2,1.6-.2,1.4-.9-.1-.4-.1-.8-.1-1.2,0,0,0,0,0,0,.1-1.4.4-2.8,1.2-4,.3-.5.7-1.1.3-1.6-.3-.3-1-.2-1.5-.3-.7-.2-.7.4-.7.8,0,.4.2.8.3,1.1,0,0,0,0,0,0,0,.3,0,.6,0,1,0,0,0,.1,0,.2,0,.2,0,.5-.1.7,0,0,0,.1,0,.2,0,.2-.1.5-.2.7,0,0,0,0,0,0-.1,1-.7,1.8-1.1,2.7,0,0,0,0,0,.1ZM25.2,19.4c0,0,0,.2,0,.2-.6,1.2-1.3,2.4-1.4,3.9,0,.3,0,.6,0,1,0,.3,0,.5,0,.8,0-.3,0-.6,0-.7.2-1.8.5-3.5,1.5-4.9,0,0,0-.1.1-.2ZM22.9,24.3c.4-1.6,1-3.2.3-4.9,0,0,0,0,0,0,0,0,0,0,0,0,.2.5.5,1,.5,1.6-.3,1.1-.6,2.2-.8,3.3,0,0,0,0,0,0,0,0,0,0,0-.1ZM22.3,25.9c.4.1.9.4,1.3,0,0,0,0,0,.1,0,0,0,0,.1,0,.1-.1.3-.4.3-.8.3-.2,0-.4-.2-.7-.3,0,0,0,0,0-.1,0,0,.1,0,.2,0Z"/>
      <path class="cls-3" d="M25.9,26.2c0-1.7.6-3.3,1.6-4.6.6-.8.4-1.2-.6-1.4-1-.2-1.3,0-1.2,1,.2,1.3-.3,2.6-.7,3.8h0c-.3.6-.9.9-.9,1.6,0,0,0,0,0,0,0,0,0,0,0,0,0,0,0,0,0,0,.3.3.7.4,1.1.2.3-.2.5-.4.6-.8ZM25.4,24.3c.2-.8.5-1.7.5-2.6,0-.2,0-.4,0-.6,0,.2.2.5.2.6,0,1-.3,1.9-.6,2.7,0,0,0,0,0,0,0,0,0,0,0-.1ZM25,27c-.2,0-.5,0-.6-.3.2,0,.3,0,.5,0,.4,0,.6-.1.7-.5.3-1.4.7-2.8,1.3-4.1.2-.5.5-.9.8-1.3,0,0,0,0,0,0,0,.1,0,.3,0,.4-.9,1.2-1.4,2.6-1.7,4.1,0,.3-.1.6-.1,1,0,.5-.3.7-.8.8Z"/>
      <path class="cls-3" d="M19.9,17.3c.5.6,1.3.4,1.9.2.5-.2.3-.6.2-.9-.5-1.3-.5-2.6-.5-3.9,0,0,0,.1,0,.2,0,1.3,0,2.5.4,3.7,0,0,0,.2,0,.3,0,0,0-.2,0-.3-.2-1.6-.5-3.2-.3-4.9,0,0,0,0-.1,0-.2,0-.3,0-.5,0h0c0,0-.1,0-.2,0,0,0-.2,0-.3,0,0,0,0,0,0,.1,0,0,0,0,0,.1,0,.5,0,.9,0,1.4,0-.6-.2-1.2-.3-1.9,0,0,0,0,0,0,0,.1,0,.2.1.3,0,0,.2,0,.3,0v-.5c0,0,.2.2.2.2.3,0,.5,0,.5.4,0,0,0,0,.1,0,0-.2,0-.4,0-.6,0,.3,0,.5,0,.8,0,.2,0,.5,0,.7,0-.1,0-.3,0-.4.4-1.3,0-1.6-1.3-1.2-.2,0-.4.3-.4.3.4,1,.4,2,.4,3,0,.7-.2,1.4-.2,2,0,.3-.5.6-.3.9ZM20.5,17.2c.3,0,.6,0,.9,0,.1,0,.2,0,.4,0-.1.1-.3.2-.4.3-.1,0-.3,0-.5,0-.1,0-.3,0-.3,0-.1-.1-.2-.3-.3-.4,0,0,.2.2.3.2Z"/>
      <path class="cls-3" d="M26.4,18.1c-.6,1.3-.4,1.7,1,1.8.6,0,.5-.1.6-.4-.1-.6-.2-1.2-.3-1.8-.1.6,0,1.1,0,1.7,0,0,0,0,0,0,0,.2,0,.3-.1.5,0-.1,0-.2,0-.3-.3-1.6-.1-3.1.2-4.7,0-.4-.1-.7-.4-.9-.3-.2-.7-.3-1,0-.3.2-.1.5,0,.8.3,1.1.5,2.3,0,3.3ZM26.9,14c.2.1.4.2.6.3-.1,0-.2.2-.3.1-.2,0-.3-.2-.5-.3,0,0,.2,0,.2-.1ZM26.5,14.6s0,0,.1,0c.4,1,.4,2.1.2,3.1,0,0,0,0,0,.1,0,0,0,0,0-.1,0-.4,0-.8.1-.9,0-.9,0-1.6-.3-2.2,0,0,0,0,0-.1Z"/>
      <path class="cls-3" d="M23.9,16.2s0,0,0-.1c0,0,0,0,0,0,0,.6-.7,1-.5,1.6.1.5.7.3,1.1.4,0,0,.2,0,.3,0,.6.2,1-.1.8-.7-.3-1.3-.6-2.6-.3-4,0,0,0,0,0,0,0-.1,0-.2,0-.3,0,0,0,0,0-.1,0,0,0,0,0,0,0,0,0,0,0,0,0,0,0-.1,0-.2,0,0,0-.1,0-.2,0,0-.1,0-.2-.1-.4-.1-.9-.2-1.2,0-.1.1-.2.4-.2.6,0,.4.2.7.3,1.1,0,.2,0,.4,0,.6,0,.3,0,.6,0,1,0,0,0,0,0,0,0,0,0,.1,0,.2.2.6-.2,1-.4,1.4,0,0,0,0,0,.1,0,0,0-.1,0-.2.1-.4.3-.8.4-1.1ZM25.4,17.5c0,.2-.2.4-.3.4-.2,0-.2-.2-.1-.3,0,0,.1,0,.2,0,0-.2,0-.5-.1-.7-.2-.6-.2-1.3-.2-1.9,0,0,0,0,0,0,0,0,0,0,0,0,0,.8.1,1.7.4,2.5ZM24,12.4c0,0,.2,0,.1.1h.6c0,0,0,0,0,0h0s0,0,0,0c0,0,0,0,0,0h0s0,0,0,.1c0,.3-.2,0-.3,0-.2,0-.4.2-.5,0,0,0,0-.2,0-.3Z"/>
      <path class="cls-3" d="M28.4,21.5c-.3,0-.5.4-.4.7.3,1.6-.4,2.9-1.4,4-.1.1-.3.2-.4.4-.2.2-.5.6-.5.7.2.5.7.5,1.2.6.2,0,.4,0,.4-.3,0,0,0,0-.1,0-.3.2-.7.2-.9-.1h0c0,0,0-.1,0-.2,0,0,0,0,.1,0,.4.2.7.1,1-.1,0,0,0,.1,0,.2h0s0,0-.1.1c0,0,0,0,.1,0,0,0,0-.1,0-.2,0-.2,0-.3.1-.5.4-1.5,1.1-2.9,2.3-4.1.2-.2.4-.5.2-.8-.4-.6-1-.5-1.6-.5ZM28.9,21.7c.6,0,.9.2.7.7,0,0-.1.2-.2.2-.1,0-.3-.1-.3-.2,0-.2,0-.3.3,0,.2-.2.2-.3,0-.4-.1,0-.2,0-.4,0,0,0-.1,0-.2-.1,0,0,.1,0,.1,0ZM29.6,22.9c-1,1.1-1.6,2.3-2.1,3.6,0,0,0,0-.1.1,0,0,0-.1,0-.2.5-1.3,1.2-2.6,2.1-3.7.1-.1.2-.3.2-.5,0,0,0-.1,0-.2,0,0,0,.2,0,.3,0,.2-.2.4-.3.5Z"/>
      <path class="cls-3" d="M29.8,17.6c0-.3,0-.6,0-.8,0-.4,0-.7-.4-.8-.3-.2-.7-.3-1-.1-.3.2-.1.6,0,.9,0,0,0,.1,0,.2,0,0,0-.2,0-.2,0-.1,0-.3,0-.4,0,.1.1.2.2.4.4,1.2.6,2.5,0,3.8,0,.2,0,.6,0,.7.4.2.9.3,1.4.4.2,0,.2-.4.2-.6-.3-1.1-.4-2.2-.4-3.3ZM28.6,16.1s0-.2,0-.2c.4.1.6.2.9.3,0,0-.2.3-.2.3-.2,0-.5-.2-.7-.4ZM28.7,20.7c0,0,0-.1,0-.2.1-.6.3-1.1.4-1.7,0,0,0,0,0,0,0,.1,0,.3,0,.7,0,.3-.3.7-.4,1.2,0,0,0,0,0,0ZM29.6,21.2c-.2,0-.5-.1-.5-.4,0,0,0-.1,0-.1.2,0,.5,0,.7.1-.1.1-.2.4-.3.4Z"/>
      <path class="cls-3" d="M15.1,19.3c.5-.1,1.2-.3.5-1,0,0,0,0,0,0-.7-.2-.8-.8-1-1.4,0-.2,0-.4-.1-.5-.4-.5.3-2.1-1.4-1.3-.6.3-.4.4-.2.7.6.8,1.1,1.8,1,2.8,0,1.3.7.9,1.3.8ZM14.8,18.9c.3.2.4-.6.6,0,0,0-.4.2-.7.4,0,0,0-.2,0-.3,0,0,.1,0,.1,0ZM13.6,16.9c-.3-.4-.5-.8-.8-1.3,0-.1,0-.3-.1-.4,0,0,0,0,0,0,.2.4.4.7.6,1.1,0,.2.2.4.2.6,0,0,0,0,0,0Z"/>
      <path class="cls-3" d="M25.1,32.2s0,0,0,0c0,0,0,0,0,0-.4,0-.8.2-1.3.3-.5,0-.9.1-1.2.7,0,0,0,0,0,0,0,0,0,.1,0,.2,0,0,0,0,0,0,0,.2,0,.4,0,.6,0,0,0,0,0,0,.3.4.7.7.8,1.3.3,2.1.1,4.2,0,6.3.5,0,1.1-.1,1.6-.2,0-.3,0-.6,0-.9,0-.3,0-.7,0-1,0,0,0,0,0-.1,0,0,0,0,0,0,0,0,0,0,0-.1,0,0,0-.2,0-.2,0,0,0-.1,0-.2,0-.1,0-.3,0-.4,0,0,0-.2,0-.2,0,0,0,0,0,0,0,0,0,0,0,0,0,0,0-.2,0-.3,0,0,0,0,0,0,0,0,0,0,0-.1,0,0,0,0,0,0,0,0,0,0,0-.1.1-1.1.2-2.2.6-3.3.5-.6.8-1.2.3-1.9-.4-.5-.8-.2-1.2,0ZM25.2,33.7c.4-.4.7-.9.6-1.5,0,0,0,0,0,0,0,0,0,0,.1.1.3.7,0,1.2-.7,1.5,0,0,0,0,0,0,0,0,0,0,0,0ZM24.7,35.6s0,0,0,0c0,0,0,0,0,0ZM23.7,32.6c.4,0,.9-.2,1.3-.3-.2.2-.4.5-.6.7,0,0,0,0,0,0,0,0,0,0-.1,0,0,0-.1,0-.2,0,0,0-.2,0-.2,0,0,0,0,0,0,0,1.5-.5-.7,0,0-.3,0,0-.1,0-.2-.1,0,0,.1,0,.2,0ZM22.9,33.9c-.1-.2,0-.4,0-.6,0-.1.2-.2.3-.3,0,.1.2.2.2.3,0,.2.1.5-.1.6,0,0-.1,0-.2,0-.1,0-.3,0-.3-.1ZM24.1,38.1c0,.9,0,1.7-.1,2.6,0,0,0,.1,0,.2,0,0,0-.2,0-.2,0-1.8.2-3.6-.2-5.4,0-.2-.2-.4-.3-.6,0,0,0-.2-.1-.3.1,0,.2,0,.3.1h0s0,0,0,0c.6,1,.4,2.1.5,3.2,0,0,0,.2,0,.3,0,0,0-.2,0-.3,0-.6,0-1.1,0-1.7v1.4c.1,0,.2,0,.2,0,0,0,0,0,.1,0,0,0,0,0,0,0,0,0,0,0,0,0,0,0,0,0,0,0,0,0,0,0,0,0,0,0,0,0-.1,0,0,0,0,0,0,0,0,.1,0,.3,0,.4,0,0,0,0,0,0,0,0,0,0,0,0-.2-.1-.2,0-.2.1ZM24.8,41.4c0-.3,0-.7,0-1,0-.3,0-.5.1-.8,0,.1,0,.2,0,.4,0,.1,0,.2,0,.4,0,0,0,0,0,0,0,.3.1.7-.2,1ZM25.2,37.3s0,0,0,0c0,0,0,0,0,.1v-.2c0-.6,0-1.2.2-1.8h0s0,0,0,0h0s0,0,.1,0c0,0-.2,0-.2-.1,0,0,.2,0,.2.1,0,0,0,0,0,0,0,.6-.1,1.3-.2,1.9,0,0,0,0,0,0ZM25.8,33.7c0,0-.2.1-.3.2,0,0,0,0-.1,0,0,0,0-.1,0-.2.4-.4.8-.8.6-1.4,0,0,0,0,0,0,0,0,.1,0,.1.1.3.6,0,1-.4,1.3Z"/>
      <path class="cls-3" d="M20.4,10.2s0,0,0,0c0,0,0,0,0,0Z"/>
      <path class="cls-3" d="M20.3,8.3c0,.5,0,.9,0,1.2-.2,1.3,0,1.5,1.3,1.1.2,0,.3-.2.2-.4-.5-1-.4-2.1-.3-3.2,0,0,0-.3,0-.3-.4,0-.8,0-1.2,0,0,0,0,.2,0,.2,0,.5.2,1,.2,1.3ZM21.5,10.1c0,0,0,.2,0,.2,0,0,0-.1,0-.2,0-.5-.2-1-.2-1.3,0-.2,0-.3,0-.4,0,0,0,.2,0,.3,0,.5.2.9.3,1.4ZM20.7,7s0,.1,0,.2c0,0,.1,0,.2-.1.2,0,.4,0,.3.2,0,0-.2.1-.3.2-.1-.1-.3-.2-.4-.3,0,0,0-.2.1-.1ZM20.4,10.3c0,.4-.2.4-.2,0,0-.3,0-.6.1-.9,0,.1,0,.3,0,.7,0,0,0,.1,0,.2Z"/>
      <path class="cls-3" d="M23.4,30.5s0,0,0,0c0,0,0,0,0-.1,0,0,0,0,0,0,0-.1,0-.3,0-.4h0c0,0,0-.2,0-.3,0,0,0,0-.1,0-.2,0-.4,0-.6,0,0,0-.2,0-.3,0-.2,0-.4,0-.6,0,0,0,0,0,0,.1-.1.4-.3.7-.4,1.1-.3.7-.5,1.3.6,1.5,1.3.2,1.9-.4,1.6-1.9ZM21.5,31.9s0-.1,0-.2c0,0,.2,0,.3,0,.3,0,.7.1,1,.2,0,0,0,0,0,0,.1,0,.2-.2.4-.3,0,0,0,0,0,0,0,0,0,0,0,0,0,0,0,0,0-.1,0,0,0,0,.1-.1,0,.2,0,.5,0,.6-.5.5-1.2.5-1.8.1Z"/>
      <path class="cls-3" d="M25.3,27.4c-.5.1-1.3-.4-1.3.7,0,.2-.1.4-.2.6-.4.6,0,.8.5.9,0,0,0,0,0,0,0,0,.2,0,.2,0,0,0,0,0,0,0,.8-.2.8-.9.9-1.6,0,0,0,0,0,0,0-.2,0-.3,0-.5ZM25.3,27.9c-.2.1-.4.1-.6,0,0,0,0,0,0,0,0,0,0,.2-.1.3,0,0,0-.2,0-.3,0,0,0-.3.1-.3.3,0,.5,0,.8,0,0,0,0,.1,0,.2Z"/>
      <path class="cls-3" d="M20.7,6.3c.2-.1.8.2.7-.3-.2-.7-.2-1.4-.1-2.2,0-.1,0-.2,0-.4-.3,0-.7,0-1,0,0,0-.1.2,0,.3.2.6.3,1.2,0,1.8-.4.7,0,.6.5.6ZM20.4,3.7c.2.3.5,0,.7,0-.2.1-.3.3-.5.3-.1,0-.3,0-.3-.4,0,0,0,0,0,0Z"/>
      <path class="cls-3" d="M18.9,28.6c.4-.4.7-.8.6-1.5,0,0,0,0,0,0-.2-.3-.3-.5-.3-.9,0,0,0,0,0,0-.3.5-.8.8-1.3,1.1-.1,0-.4.2-.4.2.2.4,0,1,.5,1.3.3.2.7,0,1-.2ZM18.2,28.7c-.5-.1-.5-.5-.5-1,.4-.3.8-.6,1.3-1,0,0,0,0,0,0,0,0,0,.2-.1.3-.2.4-1,.4-.7,1.1,0,.2,0,.4.1.4.1,0,.2-.2.3-.3,0,0,.2-.1.3-.2,0,.1,0,.2,0,.3,0,0-.1,0-.1,0-.2.2-.3.5-.6.4Z"/>
      <path class="cls-3" d="M22.1,29.2c0,0,.1,0,.2,0,0,0,0,0,0,0,.2,0,.3,0,.5,0,0,0,0,0,0,0,0,0,.2,0,.3-.1,0,0,0,0,0,0l.2-.4s0,0,0-.1c0-.2.1-.4.2-.5.2-.4.4-.8.1-1.2,0,0-.3,0-.5,0,0,0,0,0,0,0-.1,0-.2,0-.4,0h0s0,0,0,0c0,0,0,0,0,0,0,0,0,0,0,0,0,0,0,0,0,0,0,0,0,0-.1,0h0s0,0,0,0h0s0,0,0,0c0,0-.2-.1-.1,0,0,.6,0,1.1-.3,1.6-.4.5,0,.6.3.7ZM22.8,28.9s0,0,0,0c0,0,0,0,0,0,0,0,0,0,0,0ZM23.7,26.9c0,.1,0,.3,0,.4,0,.4-.2.9-.5,1.2,0,0,0,0,0,0,0,0,0,0,0,0,0,0,0,.1,0,.2,0,0,0-.1,0-.2,0,0,0,0,0,0,0,0,0,0,0,0,0,0,0,0,0,.1,0,0,0,0,0-.1,0,0,0,0,0,0,0,0-.2,0-.2,0,.2-.2.3-.4.5-.6.1-.3.2-.5.3-.8,0-.1.1-.3.2-.4ZM23.2,27.8h0s0,0,0,0ZM23.4,27.3c0,0-.1,0-.2,0,0,0,0,.2,0,.2,0,0,0-.2,0-.2,0,.1-.4-.3-.3.1,0,0,0,0,0,0,0,0,0,0,0-.1,0-.1,0-.3,0-.4.2.3.7-.3.7.3Z"/>
      <path class="cls-3" d="M25.1,30.7s0,0,0,0c0,0,0,0,0,0h0Z"/>
      <path class="cls-3" d="M20.7,26c0,0,.2,0,.2,0,0,0,.1,0,.2,0,.1,0,.2,0,.3-.1,0,0,.2-.2.2-.3,0-.2,0-.3,0-.5,0-.2-.1-.4-.2-.6,0,0,0,0,0,0,0,0,0,0,0-.1,0-.3,0-.6,0-.9,0,0,0,0,0,0,0-.2,0-.4,0-.6,0,0,0-.1,0-.2,0,0,0-.2,0-.2,0,0,0,0,0,0,0-.2,0-.3,0-.5,0,0,0-.1,0-.2,0-.2,0-.4,0-.6,0,0,0-.1,0-.2,0,0,0,0,0-.1,0,0,0,0,0,0,.2-.6.5-1.2.7-1.8.1-.5.4-1.2-.7-.9-.3.1-.7,0-1,0-.6,0-.8.3-.6.8.5,1,.5,2,.5,3,0,0,0,.1.1.2,0,0,0-.1-.1-.2,0,.6-.2,1.2-.3,1.8,0,0,0,0,0,0,0,0,0,0,0-.1,0,0,0,0,0,.1,0,0,0,0,0,0h0s0,0,0,0c0,0,0,0,0,0,0,0,0,0,0,0,0,0,0,0,0,.1,0,0,0,0,0,0,0,0,0,0,0,0,0,0,0,0,0-.1-.2.4-.4.9-.5,1.3,0,0,0,0,0,0,.2.5.6.7,1.1.7ZM22,19c0,0,0-.3,0-.4,0-.2,0-.3,0-.4,0,0,.1,0,.1,0,0,.2.2.4,0,.6-.3.9-.8,1.8-.9,2.7,0,.3,0,.5,0,.8,0,.3,0,.5-.1.8,0-.3,0-.5,0-.8,0-1.2.2-2.3.8-3.3ZM20.6,21.7c0,0,0-.2,0-.3,0-.2,0-.4,0-.7,0-.6,0-1.1-.2-1.6-.1-.2-.2-.5,0-.7,0,.1,0,.3,0,.3.4.9.3,1.8.2,2.7,0,0,0,.2,0,.3ZM20.6,22.3s0,0,0-.1c0,0,0,0,0,.1ZM20.6,22.4s0,0,0,0c0,0,0,0,0,0,0,0,0,0,0,0,0,0,0,0,0,0ZM20.3,23.5s0,0,0,0c0,0,0,0,0,0ZM20.2,24.3s0,0,0,0c0,0,0,0,0,0ZM20.1,25.3c.3.3.6.5,1,.2,0,0,0,0,0,0,0,0,0,0,0,0,0-.1,0-.2.1-.3.2.2.1.4,0,.6-.3.3-.6.3-.9,0-.2-.1-.3-.3-.4-.5,0,0,.1,0,.2,0Z"/>
      <path class="cls-3" d="M20.8,3.2s.2,0,.4-.2c0,0,0,0,0,0-.4-.5-.2-1-.3-1.6,0-.2-.1-.3-.2-.5,0,.1-.1.3-.1.4,0,.5,0,1.1-.2,1.5-.2.4-.1.4.4.4Z"/>
      <path class="cls-3" d="M24.2,32s0,0,0,0h.1s0,0,0,0c.4-.2.9-.5,1.2-.7.3-.2.5-.9.3-1-.5-.3-1-.5-1.6-.3-1.2-.3-.2.6-.4.8,0,0,0,.2,0,.3,0,0,0,0,0,.1v.3s0,0,0,.1c0,.2-.1.5.3.3ZM25.8,30.7c-.2.5-.6.7-1.1.8,0,0,0,0,0-.1.3-.1.7-.2.8-.6,0,0,0,0,0,0,0-.1.2-.3.2-.4,0,.1,0,.2,0,.3ZM25.5,30.8c-.3.1-.6.3-.9.4-.1-.2.1-.2.2-.2,0-.1.2-.2.3-.3-.4,0,0-.3-.2-.3,0,0-.4.2-.2-.1.4,0,1-.4.8.5Z"/>
      <path class="cls-3" d="M20.6,29c.2.2.4.4.6.6,0,0,0,.1,0,.2.3-.9-.7-.8-1-1.1,0,0,0,0,0,0-.2,0-.5-.3-.5-.2-.5.7-1.8,1-.8,2.3.5.6.9,1.1,1.6,1.1.1,0,.3-.8.4-1.2,0,0,0-.2,0-.2,0,0,0,0,0-.1,0,0,0,0,0,.1,0,0,0-.2.1-.3,0-.2-.1-.4-.2-.6,0-.2-.2-.3-.3-.5,0,0,0,0,0,0ZM19.3,29.1c.3,0,.2-1.1.6-.2-.1.2-.2.5-.5.6,0-.1.1-.2.2-.3h0s0,0,0,0c0,0,0,0,0,0,0,0,0,0,0,0,0,0,0,0,0,0-.2.1-.5.2-.7.3.2-.1.4-.4.5-.4ZM20.1,31.4c0,0-.2,0-.3,0-.3,0-.5-.2-.6-.5.2,0,.3.2.5.2.2,0,.4,0,.5,0,.1,0,.3-.3.4,0,0,.3-.3.3-.5.3ZM19.8,30.9c-.5-.2-.9-.6-1.1-1.1,0,0,.2,0,.2,0,0,0,0,.1.1.2,0,0,.2.2.3.3.4.5,1,.6,1.5.3-.3.4-.6.5-1,.3ZM20.9,30.1c0,0,0,.1,0,.2,0,0,0-.1,0-.2,0,0,0-.1,0-.2,0,0,0,.1,0,.2ZM20.7,29.8s0,0,0,0c0,0,0,0,0,0Z"/>
      <path class="cls-3" d="M19.7,26.7s0,0,0,.1h0s0,0,0,0c.2.3.2.6,0,1,0,0,0,0,0,0,.2.1.5.3.7.4.5.5.8.3,1-.3,0,0,0,0,0,0,0,0,0-.1,0-.2,0,0,0,0,0,0,0,0,0,0,0,0,0-.5.3-1.1-.3-1.5,0,0-.1,0-.2,0,0,0-.1,0-.2,0,0,0,0,0-.1,0,0,0,0,0-.1,0h0s0,0-.1,0c0,0,0,0,0,0,0,0,0,0,0,0-.3,0-.6-.2-.8-.4,0,0,0,0,0,0,0,.1,0,.2,0,.3,0,0,0,.1,0,.2,0,0,0,.1.1.2ZM21.5,27.4c-.2-.3-.3-.7-.7-.8.9-.3.6.4.7.8ZM19.9,26.3c0,0,.2.2.3.3,0,0,0,.2,0,.3.1.4,0,.9.5,1.1,0,0,.1.2,0,.2-.8-.4-.4-1.2-.8-1.8,0,0,0,0,0,0Z"/>
      <path class="cls-3" d="M28.2,20.5c.3-.6.4-1.2.4-1.6,0-.5,0-.7,0-.9,0-.1,0-.3,0-.4,0,0,0,.1,0,.2-.3.8,0,1.7-.5,2.5,0,0,0,.2.1.3,0,0,0,0,0,0Z"/>
      <path class="cls-3" d="M13.8,14.1c.1-.2-.3-.3-.5-.5-.2-.3-.4-.6-.5-.9,0,0,0,0,0-.1,0,0,0-.1-.1-.2,0-.4-.3-.5-.6-.6-.1,0-.3,0-.4,0,0,.2.1.4.2.5.3.5.5,1,.6,1.5,0,0,0,0,0,0,0,.1,0,.2,0,.4,0,0,0,0,0,0,0,0,0,.1,0,.2,0,0,.2,0,.3,0,.5,0,1,0,1.2-.5ZM13.3,14.1s0,0,0,0c0,0,0,0,0,0ZM13.3,14.1s0,0,0,0c0,0,0,0,0,0,0,0,0,0,0,0ZM12,12.5c0-.1,0-.3-.1-.4l.5.5c0,.3,0,.6,0,1-.1-.4-.3-.7-.4-1.1Z"/>
      <path class="cls-3" d="M25.8,28c0,0,0,.1,0,.2,0,0,0,.2,0,.3,0,0,0,0,0,0,0,.2,0,.4-.1.6,0,0,0,0,0,.1,0,0,0,0,0,0,0,0-.2.2,0,.3,0,0,.1,0,.2.1.3.2.6.2.8,0,.3-.4.4-.9.2-1.3,0-.2-.6-.2-1-.3ZM26.7,28.6c0,.4,0,1-.6,1,.1-.1.2-.3.3-.4.2-.4.2-.7-.3-.8,0,0,0,0,0,0,0,0,0,0,0-.1.2.1.7-.2.7.4Z"/>
      <path class="cls-3" d="M25.9,18.4c0-.3.2-.6.3-.9.1-.8.1-1.6,0-2.5,0,0,0,0,0,0,0,0,0,0,0,0-.2.7-.5,1.5-.1,2.3,0,.4,0,.7-.2,1,0,0,0,.2,0,.3,0,0,.1-.1.1-.2Z"/>
      <path class="cls-3" d="M25.1,30.7s0,0,0,0c0,0,0,0,0,0,0,0,0,0,0,0Z"/>
      <polygon class="cls-3" points="25.1 30.7 25.1 30.7 25.1 30.7 25.1 30.7"/>
    </g>
  </g>
</svg>