<svg xmlns="http://www.w3.org/2000/svg" width="42" height="42" fill="none" viewBox="0 0 42 42"><path stroke="#000" stroke-miterlimit="10" stroke-width="4.171" d="M10.157 30.738A.094.094 0 0 1 10 30.66l1.716-24.145a.552.552 0 0 1 .87-.412l19.708 14.051c.068.053.047.157-.036.172l-8.963 1.752a.278.278 0 0 0-.203.386l5.459 12.18-2.498 1.178L23.556 37l-5.918-11.965a.279.279 0 0 0-.427-.094l-7.054 5.797Z"/><path fill="#FDDC60" d="M11.71 6.515 10 30.66a.094.094 0 0 0 .157.078l7.054-5.797a.279.279 0 0 1 .427.094L23.556 37l2.497-1.178 2.498-1.179-5.46-12.179a.278.278 0 0 1 .204-.386l8.963-1.752c.083-.015.104-.12.036-.172L12.586 6.104a.552.552 0 0 0-.87.411h-.006Z"/></svg>